<?xml version="1.0" standalone="no"?>
<!DOCTYPE svg PUBLIC "-//W3C//DTD SVG 20010904//EN"
 "http://www.w3.org/TR/2001/REC-SVG-20010904/DTD/svg10.dtd">
<svg version="1.0" xmlns="http://www.w3.org/2000/svg"
 width="1024.000000pt" height="1024.000000pt" viewBox="0 0 1024.000000 1024.000000"
 preserveAspectRatio="xMidYMid meet">

<g transform="translate(0.000000,1024.000000) scale(0.100000,-0.100000)"
fill="#000000" stroke="none">
<path d="M5722 9611 c-9 -5 5 -27 45 -72 32 -35 73 -84 92 -109 19 -25 43 -54
53 -65 32 -34 86 -108 107 -145 10 -19 30 -46 42 -60 31 -34 83 -130 70 -130
-5 0 -23 19 -40 43 -16 23 -62 65 -101 92 -39 28 -91 65 -116 83 -24 17 -49
32 -54 32 -5 0 -43 17 -84 39 -41 21 -98 44 -128 51 -29 6 -84 21 -123 31 -74
21 -83 23 -155 32 -110 15 -368 22 -465 13 -22 -2 -77 -7 -123 -10 -46 -4
-105 -11 -130 -17 -104 -25 -189 -39 -224 -39 -20 0 -39 -4 -42 -9 -4 -5 -28
-13 -54 -16 -26 -4 -78 -18 -117 -32 -38 -13 -86 -29 -105 -35 -19 -5 -41 -15
-47 -20 -7 -6 -13 -8 -13 -4 0 3 -35 -12 -77 -35 -43 -23 -94 -50 -113 -60
-51 -27 -70 -44 -70 -62 0 -13 5 -13 40 4 41 20 65 25 40 9 -13 -8 -12 -10 3
-10 9 0 17 5 17 11 0 6 6 7 12 2 17 -9 69 -4 86 9 7 6 12 7 12 1 0 -6 55 -9
137 -9 86 1 138 -3 140 -9 4 -12 -52 -35 -86 -35 -12 0 -34 -12 -48 -26 -14
-14 -23 -19 -20 -10 7 19 6 19 -25 7 -13 -5 -42 -15 -65 -21 -23 -7 -41 -16
-39 -19 2 -3 -7 -7 -20 -7 -13 -1 -32 -5 -42 -9 -9 -5 -23 -9 -30 -11 -34 -7
-43 -15 -38 -32 4 -13 1 -19 -9 -19 -9 0 -14 6 -11 14 3 7 1 13 -4 13 -6 0
-10 -6 -10 -14 0 -21 -26 -40 -35 -25 -6 8 -10 8 -15 -2 -10 -16 -1 -41 12
-33 6 4 5 10 -3 15 -10 6 -7 8 8 6 17 -1 19 -4 11 -14 -5 -7 -8 -20 -4 -28 3
-9 0 -15 -9 -15 -8 0 -15 5 -15 12 0 6 -3 8 -7 5 -3 -4 -12 1 -20 11 -11 14
-11 13 -1 -13 7 -16 20 -37 28 -45 9 -8 11 -12 5 -9 -22 14 -55 20 -55 11 0
-6 19 -17 42 -27 42 -16 43 -16 60 5 10 12 18 18 18 14 0 -5 7 0 15 10 19 25
29 15 30 -30 1 -22 -4 -38 -14 -44 -9 -5 -11 -10 -5 -10 14 0 36 25 28 33 -3
3 6 13 20 22 14 10 26 23 26 30 0 18 25 26 39 12 8 -8 11 -8 11 1 0 7 7 12 15
12 8 0 15 -7 15 -15 0 -8 5 -15 11 -15 8 0 8 -5 -1 -15 -7 -8 -17 -12 -24 -8
-6 3 -3 -3 8 -15 10 -12 23 -19 27 -16 5 3 9 3 9 0 0 -3 -25 -24 -56 -46 -64
-48 -75 -67 -49 -86 16 -12 22 -11 41 7 22 21 51 18 38 -3 -4 -7 -2 -8 4 -4 7
4 12 14 12 21 0 8 6 12 14 9 9 -4 20 6 30 25 10 18 22 28 29 25 8 -3 20 2 27
11 7 8 23 15 35 15 19 0 22 -4 19 -31 -2 -18 0 -28 6 -24 19 12 9 -10 -19 -42
-26 -30 -50 -45 -37 -24 4 5 0 11 -6 14 -16 5 -48 -10 -48 -24 0 -6 7 -3 16 6
22 22 26 14 13 -24 -6 -18 -9 -35 -5 -38 3 -4 6 1 6 11 0 9 5 14 10 11 6 -3
10 -1 10 5 0 6 5 8 11 5 6 -5 4 -12 -8 -20 -15 -11 -14 -13 15 -10 17 1 29 -1
27 -6 -3 -4 -14 -6 -25 -4 -27 5 -45 -19 -25 -35 13 -11 16 -11 13 0 -2 7 3
15 11 18 10 3 12 0 8 -12 -4 -10 -1 -16 9 -16 8 0 13 -4 10 -9 -3 -4 5 -18 18
-30 16 -15 26 -19 31 -12 3 7 3 10 -2 9 -4 -2 -8 2 -8 7 0 6 6 9 15 7 12 -2
12 -1 1 6 -16 11 -5 36 11 26 7 -4 8 -2 4 4 -11 18 -24 14 -31 -8 -3 -11 -13
-20 -22 -20 -14 0 -13 3 3 21 16 17 16 22 4 30 -11 8 -6 9 19 5 18 -3 38 -6
43 -6 5 0 6 -4 3 -10 -3 -5 -1 -10 4 -10 9 0 16 27 13 51 -1 4 8 6 18 5 11 0
18 4 17 9 -1 6 -6 8 -12 7 -5 -2 -6 0 -2 5 5 4 14 8 20 8 7 1 11 6 9 13 -3 17
15 15 22 -3 3 -8 13 -15 21 -15 9 0 13 4 10 10 -3 5 -1 18 4 27 10 17 10 17
11 0 0 -10 5 -15 10 -12 6 4 8 11 5 16 -4 5 -2 9 4 9 5 0 13 9 16 20 4 11 10
18 15 15 5 -3 11 1 14 7 3 7 3 2 0 -12 -4 -14 -13 -33 -22 -42 -8 -10 -11 -18
-7 -18 4 0 -16 -26 -46 -58 -74 -79 -112 -124 -177 -212 -30 -41 -65 -86 -78
-100 -12 -14 -24 -34 -26 -45 -1 -11 -15 -32 -30 -46 -16 -14 -28 -32 -28 -40
-1 -28 -39 -62 -63 -56 -20 5 -20 5 -4 -7 23 -17 22 -32 -4 -49 -14 -10 -16
-16 -8 -19 9 -3 8 -6 -4 -11 -9 -3 -16 -3 -14 1 1 4 -2 9 -8 10 -5 2 -20 -16
-33 -40 -13 -24 -20 -32 -17 -18 4 14 19 45 34 70 14 25 35 64 45 87 10 24 28
45 38 49 11 3 17 8 14 11 -9 10 15 44 26 37 7 -4 8 -3 4 4 -4 7 -3 12 2 12 6
0 8 8 5 18 -2 10 3 24 11 31 9 8 16 17 16 22 0 10 71 113 82 117 4 2 4 10 1
18 -6 17 -55 18 -103 1 -35 -13 -132 -82 -138 -98 -2 -5 -9 -9 -15 -9 -7 0
-21 -11 -31 -25 -26 -34 -73 -58 -80 -39 -3 8 0 11 10 7 7 -3 14 0 14 6 0 6
-15 11 -34 11 -30 0 -36 4 -46 34 -7 24 -16 33 -25 30 -8 -3 -13 -11 -12 -17
1 -7 -10 -11 -28 -9 -20 2 -26 0 -17 -6 10 -7 10 -11 -3 -22 -14 -12 -18 -11
-26 1 -8 11 -9 10 -7 -5 2 -11 -5 -21 -19 -27 -18 -7 -21 -5 -16 9 8 22 -1 13
-17 -17 -9 -17 -9 -21 0 -16 8 5 7 0 -2 -14 -7 -12 -17 -21 -23 -21 -6 0 -16
-14 -22 -31 -7 -17 -17 -28 -22 -24 -6 3 -11 2 -11 -3 0 -6 -9 -8 -19 -5 -13
3 -21 -1 -24 -14 -4 -16 -5 -16 -6 -1 0 10 8 22 20 28 11 7 18 18 15 25 -3 8
1 21 9 29 8 8 15 19 15 25 0 6 10 16 23 22 28 15 47 41 40 53 -4 5 -2 7 3 4 8
-6 35 15 34 27 0 7 71 115 93 140 10 11 27 30 38 41 12 12 19 29 17 38 -2 14
-20 5 -88 -41 -47 -32 -87 -60 -90 -63 -10 -13 -40 -19 -40 -9 0 6 -7 9 -15 5
-9 -3 -15 0 -15 10 0 12 -2 12 -14 2 -8 -7 -14 -15 -14 -18 1 -22 -5 -19 -27
10 -14 18 -22 36 -19 39 3 3 9 0 13 -8 6 -10 10 -9 14 4 7 18 -14 30 -37 22
-8 -3 -22 4 -33 15 -10 12 -12 18 -6 14 7 -4 21 -2 30 3 17 10 16 10 -2 11
-13 0 -16 3 -8 8 8 5 9 13 3 22 -9 13 -10 13 -10 0 -1 -12 -3 -11 -11 3 -5 9
-16 17 -24 17 -8 0 -17 5 -21 12 -5 7 -3 8 5 4 8 -5 11 -3 9 7 -2 9 2 16 7 17
6 1 18 7 29 12 15 8 16 12 5 19 -8 4 -16 4 -20 -2 -4 -7 -8 -5 -12 4 -5 12 1
15 25 12 26 -4 28 -2 17 11 -7 8 -8 14 -3 13 26 -5 26 3 -1 17 -19 10 -31 11
-33 5 -2 -6 -10 -11 -18 -11 -8 0 -11 -6 -8 -15 4 -8 2 -15 -4 -15 -6 0 -12 5
-14 11 -2 5 -33 -13 -68 -41 -95 -76 -94 -74 -81 -99 8 -14 8 -21 1 -21 -5 0
-10 5 -10 10 0 6 -8 10 -18 10 -20 0 -62 -39 -62 -58 0 -7 -6 -12 -14 -12 -12
0 -76 -67 -154 -160 -16 -19 -42 -60 -57 -90 -25 -49 -25 -53 -7 -40 154 109
172 120 172 106 0 -8 -6 -19 -13 -23 -21 -13 -49 -61 -42 -73 3 -5 1 -10 -4
-10 -6 0 -11 -5 -11 -11 0 -6 9 -8 21 -4 16 6 20 4 13 -6 -6 -10 -3 -10 11 1
16 13 16 15 2 18 -10 2 -14 9 -10 19 5 12 3 14 -7 8 -9 -5 -11 -4 -6 3 12 19
25 14 40 -16 18 -34 4 -71 -32 -87 -12 -5 -22 -16 -22 -23 0 -8 5 -10 13 -6 7
5 5 -3 -4 -16 -10 -14 -26 -25 -38 -24 -16 0 -18 -3 -10 -12 16 -19 -8 -85
-28 -82 -9 2 -18 -3 -20 -9 -3 -7 1 -13 7 -13 11 0 -25 -69 -43 -81 -4 -3 -10
-12 -11 -20 -5 -26 -43 -99 -48 -94 -3 3 -8 -3 -11 -15 -3 -11 -1 -20 5 -20 5
0 6 -5 2 -11 -11 -19 -26 18 -18 44 5 12 8 24 9 27 0 3 4 11 8 18 5 6 5 17 2
22 -3 6 1 13 9 16 9 3 16 15 16 25 0 10 5 19 11 19 6 0 9 7 5 15 -3 8 -2 15 3
15 10 0 55 90 48 96 -9 9 26 43 37 37 6 -4 5 0 -2 9 -11 14 -10 17 10 24 21 6
21 8 4 14 -17 5 -16 9 12 37 l31 31 -25 0 c-24 0 -58 -34 -49 -49 3 -4 -2 -9
-10 -13 -8 -3 -15 -15 -15 -26 0 -12 -9 -30 -20 -42 -11 -12 -20 -30 -20 -40
0 -10 -4 -18 -10 -18 -5 0 -7 -7 -4 -15 3 -8 -4 -28 -15 -44 -16 -21 -18 -31
-9 -34 8 -3 6 -6 -4 -6 -10 -1 -18 -5 -18 -10 0 -5 -5 -22 -11 -38 -7 -15 -13
-41 -14 -58 -2 -16 -13 -52 -26 -80 -13 -27 -23 -54 -24 -60 -1 -5 -4 -17 -7
-25 -4 -8 -14 -42 -23 -75 -19 -66 -26 -87 -45 -127 -8 -16 -10 -31 -7 -35 4
-3 2 -12 -4 -19 -15 -18 -21 -128 -8 -161 l11 -28 19 24 c10 12 17 27 14 31
-3 5 -2 10 2 12 14 6 53 67 53 81 0 8 8 14 17 13 13 -1 20 11 28 44 6 25 14
52 17 60 4 8 9 22 12 30 3 8 3 -10 0 -40 -7 -69 -17 -202 -15 -215 6 -52 10
-119 15 -218 3 -64 11 -127 18 -140 7 -12 11 -26 10 -31 -2 -5 0 -16 4 -25 9
-19 9 -19 19 -55 7 -25 9 -26 18 -11 6 12 6 20 -3 25 -8 5 -9 9 -1 11 6 2 11
24 12 49 1 57 7 80 21 80 6 0 8 -3 5 -7 -4 -3 -2 -12 4 -20 9 -9 8 -17 0 -27
-9 -11 -9 -15 1 -19 9 -4 9 -6 1 -6 -8 -1 -8 -8 2 -28 16 -32 22 -58 49 -210
1 -6 9 -26 18 -45 9 -18 22 -45 29 -60 7 -15 20 -30 29 -33 9 -3 27 -23 39
-45 l22 -40 -34 0 c-44 0 -133 -28 -173 -55 -36 -25 -104 -89 -104 -99 0 -4
-11 -19 -25 -34 -14 -15 -25 -31 -25 -37 -1 -5 -9 -28 -20 -50 -11 -22 -19
-47 -20 -56 0 -9 -3 -19 -7 -23 -29 -29 -42 -194 -22 -288 21 -103 83 -249
124 -295 11 -13 31 -37 45 -54 26 -32 99 -85 113 -81 4 1 7 -2 7 -6 0 -5 24
-19 53 -31 28 -13 66 -30 82 -38 62 -30 243 -32 326 -3 33 11 61 20 63 20 2 0
7 -11 10 -25 4 -14 13 -25 21 -25 8 0 15 -7 15 -15 0 -25 29 -75 44 -75 7 0
18 -11 24 -25 14 -30 23 -41 78 -98 38 -38 126 -116 163 -143 13 -10 12 -14
-9 -33 -38 -33 -143 -100 -157 -101 -7 0 -17 -9 -23 -19 -5 -11 -23 -22 -38
-26 -34 -7 -96 -61 -106 -90 -3 -12 -8 -47 -10 -80 -3 -33 -11 -64 -18 -70 -9
-7 -13 -44 -13 -135 0 -180 2 -173 -66 -215 -51 -31 -64 -48 -61 -76 1 -4 -8
-15 -18 -24 -11 -10 -20 -26 -20 -35 0 -10 -7 -23 -15 -30 -8 -7 -15 -22 -15
-35 0 -12 -9 -32 -20 -45 -11 -13 -20 -31 -20 -42 0 -10 -5 -18 -11 -18 -6 0
-9 -7 -5 -15 3 -8 1 -15 -4 -15 -5 0 -12 -11 -16 -24 -3 -14 -14 -32 -25 -42
-10 -9 -19 -25 -19 -34 0 -10 -7 -20 -15 -24 -8 -3 -15 -12 -15 -21 0 -8 -4
-15 -10 -15 -5 0 -10 -6 -10 -14 0 -7 -7 -27 -15 -42 -17 -33 -19 -54 -6 -54
16 0 20 -42 6 -56 -7 -8 -22 -24 -32 -37 -10 -13 -39 -34 -66 -47 -26 -13 -55
-31 -65 -40 -9 -8 -37 -28 -62 -43 -25 -15 -73 -50 -108 -77 -34 -28 -62 -48
-62 -44 0 9 -83 -58 -105 -86 -11 -13 -20 -29 -20 -35 0 -12 -54 -55 -70 -55
-7 0 -20 -9 -30 -20 -10 -11 -23 -20 -29 -20 -6 0 -24 -12 -41 -26 -16 -14
-42 -28 -57 -31 -15 -3 -29 -11 -32 -19 -3 -8 -12 -14 -19 -14 -8 0 -22 -9
-32 -20 -10 -11 -25 -20 -34 -20 -9 0 -31 -14 -48 -31 -18 -16 -33 -28 -33
-25 0 3 -11 -4 -25 -16 -13 -11 -22 -24 -20 -28 3 -5 -1 -10 -9 -13 -12 -5
-68 -112 -123 -237 -18 -39 -39 -133 -35 -152 1 -4 -6 -24 -15 -45 -9 -21 -17
-45 -18 -53 -1 -8 -11 -42 -22 -75 -43 -124 -62 -191 -68 -237 -3 -26 -11 -50
-16 -54 -6 -3 -8 -12 -5 -19 2 -7 -2 -25 -10 -40 -8 -15 -14 -38 -14 -51 0
-12 -4 -25 -9 -29 -6 -3 -9 -23 -8 -45 2 -22 0 -40 -3 -40 -14 0 -48 -88 -46
-118 1 -18 -2 -36 -7 -39 -4 -3 -7 -17 -6 -31 2 -15 0 -33 -5 -40 -4 -7 -5
-16 -2 -19 3 -3 -4 -19 -15 -34 -11 -16 -22 -39 -23 -52 -2 -12 -7 -31 -11
-42 -34 -86 -45 -118 -45 -134 0 -10 -6 -24 -14 -30 -8 -7 -12 -20 -9 -30 3
-11 0 -28 -6 -38 -5 -11 -11 -39 -12 -61 -2 -23 -7 -42 -11 -42 -4 0 -8 -5 -8
-11 0 -5 -11 -34 -24 -62 -24 -52 -29 -73 -27 -113 1 -17 9 -23 35 -26 19 -2
39 -2 45 0 18 6 41 58 41 90 0 17 7 43 15 58 8 16 15 37 15 46 0 9 5 20 10 23
6 4 9 12 8 18 -1 7 3 28 9 47 6 19 14 57 18 84 4 27 10 56 14 65 18 36 29 82
24 100 -3 10 0 22 6 25 5 4 8 13 5 21 -3 7 1 29 9 47 16 34 28 77 33 115 1 13
20 78 42 145 22 68 48 157 57 198 9 41 23 82 31 91 8 9 15 27 16 40 1 25 22
122 39 174 5 17 25 79 44 138 19 60 35 114 35 122 0 7 6 18 14 24 8 6 17 36
21 66 4 38 10 52 19 49 9 -3 16 7 20 28 6 30 8 31 20 15 19 -24 46 -11 46 22
0 15 -5 32 -11 38 -8 8 -8 17 0 32 16 28 29 27 24 -3 -5 -24 18 -49 25 -28 2
7 20 19 40 28 20 8 60 33 89 55 29 22 57 38 62 35 5 -3 12 1 15 9 3 10 14 14
30 11 14 -2 26 -1 28 2 5 11 81 58 106 66 12 4 32 17 43 29 17 19 21 20 30 7
5 -8 12 -26 15 -40 8 -36 33 -88 44 -95 6 -4 8 -10 5 -15 -3 -5 -1 -27 4 -47
12 -46 22 -99 25 -135 1 -15 10 -35 19 -45 11 -12 17 -39 18 -77 2 -53 5 -59
38 -84 20 -15 39 -31 42 -36 4 -5 11 -6 16 -3 5 3 70 8 144 11 74 3 153 8 176
12 l43 7 -1 -121 c-1 -66 2 -125 5 -130 3 -6 -1 -17 -9 -25 -10 -10 -11 -17
-4 -19 18 -6 -9 -148 -27 -148 -8 0 -14 5 -14 10 0 6 6 10 13 10 8 0 7 4 -3
10 -12 8 -12 12 -2 18 8 6 2 13 -22 25 -27 12 -33 20 -29 36 3 12 2 29 -2 38
-6 17 -7 17 -17 0 -5 -10 -7 -21 -4 -24 3 -3 1 -14 -5 -25 -8 -14 -14 -17 -23
-9 -18 15 -26 4 -26 -35 0 -20 -6 -34 -16 -38 -11 -4 -15 -15 -12 -36 3 -16 1
-31 -3 -32 -5 -2 -10 -14 -13 -28 -2 -14 -5 -25 -6 -25 -1 0 -3 -8 -5 -18 -2
-10 -11 -27 -20 -37 -25 -28 -27 -87 -3 -93 22 -6 24 -27 3 -27 -8 0 -15 5
-15 10 0 6 -4 10 -10 10 -5 0 -9 -12 -9 -27 0 -16 -3 -44 -7 -65 -5 -31 -3
-38 20 -53 32 -21 55 -83 35 -96 -8 -5 -22 -6 -31 -3 -10 3 -18 1 -18 -5 0 -5
8 -12 18 -14 11 -3 7 -5 -10 -6 -16 -1 -29 -8 -32 -18 -3 -10 -4 -3 -2 14 2
21 -2 33 -10 33 -14 0 -29 -52 -26 -91 1 -15 -5 -32 -13 -39 -21 -18 -20 -90
1 -90 14 0 16 -8 11 -42 -2 -24 -3 -37 0 -31 3 9 10 10 23 3 10 -5 32 -7 49
-4 24 5 31 3 31 -9 0 -12 -8 -15 -35 -10 -37 6 -43 -2 -21 -32 8 -12 20 -16
34 -13 15 4 19 2 15 -8 -5 -13 -17 -18 -35 -15 -10 1 -10 -12 -2 -33 3 -9 12
-16 20 -16 9 0 12 -12 11 -40 -1 -22 -4 -40 -7 -40 -3 0 -6 -9 -6 -20 0 -11 4
-20 9 -20 5 0 5 -6 0 -13 -12 -15 -13 -48 -1 -41 4 3 8 -1 8 -9 0 -8 7 -18 16
-21 24 -9 54 -7 54 4 0 6 7 10 15 10 8 0 15 9 15 20 0 11 5 20 10 20 6 0 10
-14 10 -31 0 -28 2 -30 16 -18 20 16 112 29 117 16 1 -5 20 -11 40 -12 28 -1
37 3 37 14 1 13 2 13 11 -2 5 -9 16 -17 23 -17 8 0 19 -6 25 -14 7 -8 20 -12
30 -9 9 2 23 -3 30 -11 20 -24 28 -19 36 22 4 20 10 31 12 24 3 -6 9 -9 15 -6
5 3 1 12 -10 20 -20 14 -20 60 -1 48 5 -3 9 0 9 5 0 6 -6 11 -14 11 -19 0 -27
25 -13 39 8 8 7 11 -3 11 -9 1 -4 7 10 16 14 8 17 13 8 10 -13 -4 -20 2 -24
19 -3 13 -3 28 0 34 3 5 2 21 -4 35 -5 15 -5 28 0 31 8 5 23 -26 25 -50 0 -5
7 -10 15 -10 10 0 15 -11 15 -35 0 -19 5 -34 11 -33 5 1 11 -8 11 -19 2 -19 1
-19 -11 -3 -9 13 -15 15 -20 7 -4 -7 -1 -12 6 -12 10 0 9 -3 -2 -10 -12 -7
-10 -11 10 -19 16 -6 19 -10 8 -10 -11 -1 -15 -7 -11 -21 3 -11 9 -20 14 -20
4 0 11 -17 15 -37 7 -40 38 -80 49 -63 3 6 11 10 16 10 6 0 7 -4 4 -10 -3 -5
-1 -10 4 -10 6 0 11 -6 11 -14 0 -8 5 -18 12 -22 8 -5 9 -2 4 11 -4 11 -1 22
6 28 9 6 7 7 -7 3 -17 -5 -16 -3 5 14 14 12 35 19 48 16 13 -2 26 2 28 9 3 7
13 12 22 11 13 -2 16 -11 14 -34 -5 -44 10 -40 31 8 16 38 41 53 49 28 5 -13
57 -15 102 -4 20 5 32 3 38 -6 5 -8 11 -9 16 -3 25 33 50 45 75 36 16 -6 29
-7 32 -1 9 14 34 0 28 -16 -3 -8 -8 -12 -12 -9 -4 2 -8 -10 -8 -28 0 -28 1
-29 10 -10 12 27 39 34 80 22 44 -13 57 -11 57 6 0 8 7 15 16 15 8 0 12 -5 8
-11 -3 -6 1 -10 12 -9 11 1 24 1 29 0 25 -7 75 -5 75 3 0 4 5 5 11 1 6 -3 22
0 36 7 22 12 27 11 38 -4 15 -20 28 -21 56 -5 18 11 23 10 36 -10 16 -23 33
-29 33 -11 0 5 -5 7 -12 3 -7 -4 -8 -3 -4 4 12 19 26 14 26 -10 0 -20 1 -20
23 5 24 28 37 34 37 16 0 -5 -4 -8 -9 -5 -14 9 -19 -43 -5 -54 14 -12 29 3 20
19 -4 5 -1 22 5 38 19 47 21 82 8 121 -7 20 -11 65 -10 99 1 35 -2 63 -6 63
-4 0 -8 30 -9 68 -1 65 -11 217 -14 217 -2 0 -4 23 -14 125 -5 58 -15 121 -23
155 -3 11 -5 44 -4 72 1 29 -2 53 -7 53 -5 0 -8 25 -6 55 2 30 0 55 -4 55 -4
0 -6 25 -6 55 1 31 -3 55 -8 55 -6 0 -5 7 3 16 10 13 10 17 0 23 -7 5 -14 34
-16 67 -2 33 -7 82 -10 109 -3 28 -8 66 -9 85 -2 19 -4 35 -5 35 -2 0 -10 67
-15 125 -2 19 -6 69 -10 111 l-8 76 96 -47 c52 -26 97 -46 99 -43 3 2 27 -7
54 -20 98 -50 421 -84 503 -54 14 5 36 10 50 12 64 9 108 22 178 51 42 18 58
18 45 2 -9 -11 -25 -112 -25 -158 0 -8 -4 -31 -9 -50 -4 -19 -11 -51 -14 -70
-3 -19 -7 -46 -10 -60 -2 -14 -7 -56 -10 -94 -3 -38 -8 -72 -10 -76 -6 -9 -22
-139 -30 -245 -2 -22 -5 -40 -6 -40 -1 0 -3 -9 -4 -20 -2 -11 -10 -65 -18
-120 -9 -55 -18 -124 -21 -153 -6 -57 -14 -98 -23 -122 -6 -15 -13 -67 -13
-105 0 -11 -5 -47 -11 -80 -16 -94 -18 -106 -24 -165 -4 -30 -9 -68 -11 -85
-12 -74 -16 -70 66 -72 89 -3 100 -6 100 -33 0 -18 11 -25 34 -21 5 1 17 -6
28 -16 16 -14 23 -15 39 -5 10 7 19 8 19 3 0 -5 11 -8 24 -7 13 0 22 4 19 9
-2 4 1 7 7 7 7 0 10 7 6 15 -3 9 0 15 10 15 12 0 12 -4 4 -20 -8 -14 -8 -20 0
-20 6 0 8 -4 5 -10 -3 -5 1 -10 9 -10 8 0 18 5 21 10 5 8 11 8 20 0 9 -8 14
-6 19 6 4 10 1 21 -5 25 -8 4 -3 8 12 11 17 2 23 8 21 21 -3 15 1 17 17 12 13
-4 26 1 41 17 l21 23 18 -23 c15 -21 23 -23 84 -19 48 2 67 0 67 -9 0 -28 93
-34 109 -7 8 15 24 18 87 18 54 0 79 5 82 13 3 10 7 10 16 -1 8 -11 26 -14 70
-10 l58 6 -5 38 c-4 30 -2 36 10 32 9 -4 13 -14 9 -25 -2 -11 -2 -17 1 -14 3
3 14 1 24 -4 12 -7 19 -6 23 3 3 7 7 3 11 -10 6 -20 14 -23 64 -24 79 -2 104
1 120 14 15 13 56 10 83 -4 10 -6 19 -5 23 1 3 5 19 3 40 -7 30 -14 38 -15 60
-3 14 7 25 19 25 26 0 7 5 16 12 20 8 5 9 0 6 -14 -5 -17 -2 -22 12 -22 14 0
17 5 13 21 -6 21 -5 21 18 5 20 -12 36 -14 79 -7 36 6 57 5 61 -1 4 -6 12 -7
18 -4 7 5 10 2 9 -6 -5 -21 52 -22 81 -1 15 12 41 19 62 18 34 -1 36 1 49 42
7 24 13 57 14 73 1 24 5 30 23 30 14 0 23 6 23 15 0 8 -3 14 -7 14 -21 -3 -29
3 -29 21 0 14 7 20 23 20 12 0 27 9 33 20 6 11 8 20 4 20 -3 0 1 11 10 25 9
14 15 29 12 33 -3 4 -1 14 4 22 7 12 13 12 27 4 18 -12 21 -44 8 -77 -7 -16
-3 -18 21 -15 16 2 29 9 29 16 0 17 25 32 42 25 7 -3 13 2 13 12 0 9 -5 13
-10 10 -6 -3 -13 2 -17 12 -4 10 -11 21 -17 25 -6 4 -1 8 12 8 12 0 22 2 22 5
0 10 -25 50 -39 61 -10 8 -12 24 -7 61 6 48 5 51 -19 57 -14 4 -25 14 -25 24
-1 20 -24 53 -36 51 -5 -1 -17 -1 -26 0 -22 1 -24 21 -3 21 22 0 18 18 -5 25
-11 3 -20 15 -20 25 0 17 6 19 45 16 25 -2 45 1 45 5 0 5 -5 9 -11 9 -5 0 -7
5 -4 10 3 6 0 10 -7 10 -9 0 -9 3 2 10 13 9 13 11 0 19 -18 12 -33 3 -26 -15
3 -8 1 -14 -4 -14 -6 0 -10 4 -10 9 0 11 -53 1 -62 -13 -6 -8 -10 -8 -15 0 -5
6 -18 16 -31 23 l-23 12 21 27 21 26 -35 18 c-36 19 -45 33 -25 40 8 3 6 10
-5 21 -20 20 -36 14 -36 -13 0 -28 -16 -33 -50 -15 -17 9 -35 13 -40 10 -5 -3
-18 -1 -28 4 -31 16 -99 29 -112 21 -8 -5 -9 -16 -4 -31 l8 -24 5 27 c4 19 10
25 19 19 17 -10 -6 -64 -24 -57 -7 3 -14 0 -16 -6 -5 -15 -38 20 -38 40 1 12
5 10 15 -8 8 -14 14 -20 15 -15 0 6 -7 20 -15 31 -10 16 -15 61 -18 169 -5
146 -4 148 14 124 13 -17 17 -19 15 -7 -1 9 -10 25 -19 36 -17 19 -24 47 -9
38 5 -3 9 1 9 9 0 8 -3 12 -7 10 -3 -2 -7 50 -7 116 l-1 119 42 0 c22 1 61 5
86 10 26 5 50 5 56 -1 7 -6 18 -2 29 11 12 13 30 20 49 19 17 0 55 2 84 5 29
3 73 7 98 8 24 0 44 4 44 8 0 4 11 12 25 18 14 7 25 20 25 31 0 11 4 23 10 26
5 3 9 21 8 40 -1 19 5 41 12 50 9 11 14 42 14 83 -1 84 -12 269 -18 301 -3 13
-3 27 -1 32 6 9 77 -25 95 -45 7 -9 17 -16 22 -16 6 0 35 -15 66 -34 132 -78
257 -151 262 -151 3 -1 28 -15 57 -33 50 -32 51 -33 49 -80 -1 -26 -4 -51 -7
-57 -4 -5 -3 -19 0 -29 5 -14 14 4 32 63 25 83 45 110 33 44 -4 -21 -10 -40
-13 -43 -4 -3 -7 -16 -8 -30 -4 -47 -10 -125 -12 -133 0 -5 -5 -6 -10 -2 -10
5 -16 -11 -46 -125 -9 -36 -21 -75 -26 -88 -5 -13 -9 -36 -9 -52 0 -23 -4 -28
-21 -27 -18 1 -20 6 -14 42 3 22 8 58 11 80 3 22 9 54 14 70 5 17 9 39 8 50 0
11 3 28 7 38 5 12 3 17 -9 17 -9 0 -16 -3 -17 -7 -2 -20 -8 -46 -15 -61 -11
-26 -13 -33 -25 -92 -6 -30 -17 -59 -23 -65 -6 -5 -11 -27 -11 -47 0 -21 -3
-37 -7 -35 -13 4 -36 -37 -30 -53 5 -13 3 -13 -10 -2 -16 13 -13 52 4 52 5 0
6 5 3 10 -11 17 -25 11 -35 -16 -6 -14 -19 -28 -30 -31 -11 -3 -20 -14 -20
-25 0 -12 -6 -18 -17 -16 -13 2 -19 -5 -21 -22 -3 -20 -1 -22 9 -13 8 9 18 9
31 2 14 -8 24 -7 36 3 15 12 16 11 4 -4 -9 -11 -26 -16 -55 -15 -38 1 -44 -2
-69 -38 -34 -48 -35 -84 -18 -388 6 -108 8 -202 4 -209 -5 -7 -3 -8 6 -3 9 6
10 2 5 -16 -4 -12 -7 -42 -7 -65 1 -36 -1 -42 -16 -38 -16 5 -15 5 0 -6 13 -8
18 -23 16 -58 0 -26 0 -51 2 -57 7 -26 -1 -56 -12 -49 -9 5 -8 2 1 -9 16 -20
8 -139 -9 -145 -12 -4 -13 -32 -1 -32 5 0 9 -15 9 -34 0 -49 6 -54 54 -46 24
5 51 4 64 -2 30 -14 54 -4 55 24 1 22 1 22 8 -2 6 -22 13 -25 54 -26 26 -1 47
2 47 6 0 4 9 10 20 13 13 3 18 11 15 26 -2 12 0 21 4 21 16 0 20 -13 11 -31
-6 -10 -6 -20 -1 -23 5 -3 11 3 14 14 7 28 35 26 33 -2 -1 -30 38 -37 65 -12
11 10 19 12 19 6 0 -19 28 -14 43 9 15 21 100 39 148 32 13 -2 30 -1 38 2 12
5 11 7 -2 18 -13 9 -14 16 -6 27 9 13 10 12 5 -2 -3 -11 0 -18 9 -18 20 0 23
32 5 51 -19 21 -57 33 -64 20 -3 -5 -7 -25 -8 -45 -3 -40 -23 -56 -31 -24 -3
11 -10 17 -16 13 -6 -3 -8 -12 -4 -18 4 -7 0 -6 -10 2 -22 17 -22 31 1 31 13
1 11 4 -8 16 -14 8 -17 13 -7 10 14 -5 16 -1 11 22 -4 15 -13 31 -20 35 -22
13 -37 47 -26 60 8 10 13 35 26 119 1 9 8 23 15 32 9 11 10 16 2 16 -13 0 -15
37 -3 42 5 1 12 14 15 28 5 21 3 26 -14 27 -11 1 -19 -4 -18 -10 4 -31 -2 -47
-18 -48 -10 0 -13 -3 -6 -5 8 -4 8 -14 -3 -39 -8 -19 -14 -44 -14 -55 0 -14
-4 -19 -12 -14 -7 5 -8 3 -3 -6 10 -17 -16 -32 -32 -18 -9 7 -13 7 -13 -1 0
-6 -7 -11 -15 -11 -14 0 -13 -3 2 -24 10 -13 22 -21 27 -18 5 3 6 -2 3 -12 -4
-10 -7 -22 -7 -27 0 -6 -7 -6 -17 0 -10 5 -26 12 -36 15 -10 3 -15 10 -12 16
4 6 10 8 15 5 4 -3 10 2 14 10 6 18 -5 20 -21 4 -6 -6 -21 -8 -33 -4 -25 8
-19 18 12 20 12 1 24 7 26 13 2 7 -5 9 -18 7 -17 -3 -20 -1 -15 13 4 9 12 33
17 52 5 19 15 40 22 45 7 6 16 30 20 53 3 24 13 51 21 59 8 8 15 28 15 44 0
18 6 32 16 36 8 3 13 12 10 20 -3 8 1 30 9 50 8 19 15 42 15 50 0 8 11 38 24
66 14 29 25 68 25 87 -1 19 1 47 4 61 7 37 -6 55 -24 33 -8 -9 -13 -18 -11
-18 2 -1 1 -8 -1 -16 -3 -8 -11 -35 -18 -60 -7 -25 -19 -56 -26 -70 -7 -14
-13 -34 -13 -45 0 -37 -12 -64 -30 -70 -12 -4 -16 -14 -14 -31 3 -31 -5 -56
-16 -49 -7 4 -25 -41 -22 -57 1 -3 -5 -12 -13 -18 -8 -7 -15 -23 -15 -37 0
-13 -6 -26 -14 -29 -9 -3 -12 -12 -9 -21 4 -11 -4 -25 -23 -40 -19 -16 -25
-26 -17 -31 6 -4 9 -19 6 -34 -3 -15 -9 -25 -14 -22 -5 3 -9 0 -9 -6 0 -6 -5
-8 -11 -5 -7 5 -4 14 7 26 17 19 17 20 -1 13 -11 -5 -16 -4 -12 2 4 6 -6 9
-24 6 -32 -5 -45 -17 -29 -27 5 -3 10 -1 10 4 0 6 7 11 15 11 8 0 15 -8 15
-17 0 -15 -2 -16 -10 -3 -8 12 -10 12 -16 -3 -6 -17 -29 -23 -38 -9 -2 4 0 30
5 57 5 28 12 68 14 90 3 22 13 46 22 52 9 7 12 13 7 13 -6 0 -11 18 -12 40 -1
22 2 40 7 40 5 0 7 9 4 20 -3 12 0 20 7 20 10 0 10 3 0 15 -7 8 -8 15 -3 15 5
0 10 15 11 33 2 17 7 49 13 70 5 21 12 55 15 75 9 62 11 77 13 88 0 7 12 15
26 18 14 4 25 14 25 22 0 11 -5 14 -16 10 -15 -6 -15 -4 1 20 9 15 13 24 8 21
-15 -9 -13 45 2 89 7 21 21 41 31 45 17 7 17 8 2 8 -10 1 -18 5 -18 10 0 17
12 41 21 41 4 0 6 -7 2 -15 -5 -13 -2 -14 21 -4 14 7 26 18 26 26 0 17 -17 17
-23 1 -3 -8 -6 -5 -6 6 -1 16 -3 17 -18 5 -14 -12 -16 -12 -11 1 3 8 14 51 24
95 10 44 21 82 25 85 6 5 15 76 23 203 2 26 7 51 10 54 3 4 6 19 6 35 0 26 25
66 35 56 10 -10 45 -101 51 -135 4 -21 13 -44 21 -51 7 -7 13 -22 13 -33 0
-11 9 -45 21 -77 18 -50 37 -126 68 -267 5 -22 21 -68 35 -103 15 -34 24 -67
21 -73 -4 -5 -2 -15 3 -22 5 -7 17 -41 26 -77 17 -65 47 -176 71 -260 7 -25
16 -68 19 -97 4 -28 13 -64 21 -80 8 -15 15 -36 15 -46 0 -11 6 -33 14 -50 8
-18 17 -61 19 -97 3 -35 10 -66 16 -68 6 -2 11 -17 11 -33 0 -17 5 -39 10 -49
6 -10 12 -38 15 -62 5 -55 30 -114 50 -122 24 -9 37 -7 30 4 -3 6 -1 10 4 10
6 0 11 -5 11 -12 0 -9 3 -9 12 0 15 15 20 72 8 87 -4 6 -12 33 -18 60 -6 28
-18 64 -26 80 -9 17 -16 40 -16 52 0 12 -4 25 -10 28 -5 3 -10 22 -10 41 0 19
-4 42 -9 52 -21 42 -30 69 -29 92 0 14 -9 45 -20 70 -20 45 -25 63 -42 150
-19 100 -31 147 -44 180 -8 19 -14 40 -15 45 -7 71 -16 107 -27 116 -8 6 -14
22 -14 35 0 12 -5 35 -11 51 -6 15 -13 47 -15 69 -2 23 -15 71 -29 108 -14 37
-25 76 -25 87 0 11 -6 30 -14 42 -8 12 -19 47 -26 77 -10 50 -24 91 -53 160
-5 14 -11 32 -13 40 -16 79 -24 104 -38 112 -9 5 -16 16 -16 25 0 42 -95 161
-154 193 -14 7 -26 17 -26 22 0 4 -7 8 -15 8 -8 0 -15 5 -15 10 0 6 -5 10 -12
10 -13 0 -91 51 -96 63 -2 4 -15 7 -29 7 -15 0 -23 3 -20 6 11 12 -171 124
-200 124 -7 0 -13 4 -13 8 0 4 -15 15 -32 23 -18 9 -52 26 -75 39 -42 23 -43
25 -43 76 0 51 -1 53 -44 81 -77 49 -169 107 -246 153 -41 25 -87 54 -101 65
-24 18 -25 21 -11 48 12 25 12 30 -2 46 -9 10 -16 27 -16 38 0 11 -7 26 -15
33 -8 7 -15 19 -15 26 0 8 -11 32 -25 54 -14 22 -25 46 -25 54 0 7 -12 34 -26
60 -14 26 -24 55 -21 66 3 11 -1 24 -8 30 -8 6 -11 18 -8 26 3 8 0 14 -6 14
-6 0 -11 8 -11 18 0 10 -7 27 -15 38 -8 10 -15 30 -15 44 0 15 -12 37 -27 52
-77 72 -103 108 -104 146 -1 20 -1 40 0 45 1 4 -3 26 -8 50 -11 48 -24 144
-23 169 0 10 -3 20 -9 23 -5 4 -9 19 -9 35 0 23 -11 38 -54 72 -29 24 -62 49
-72 55 -215 142 -244 171 -198 198 26 15 104 92 104 103 0 5 11 17 25 26 14 9
27 27 31 41 3 14 10 25 15 25 12 0 74 62 74 74 1 17 27 66 35 66 4 0 13 14 20
30 14 33 34 38 67 15 28 -19 137 -34 180 -25 18 5 42 6 52 3 11 -3 34 2 53 10
18 8 62 28 98 43 77 33 116 60 191 134 56 55 99 119 99 146 0 8 3 14 8 14 17
0 57 109 69 190 3 19 9 40 13 45 4 6 4 19 0 30 -4 11 -5 34 -3 50 3 17 -2 48
-11 69 -9 21 -14 42 -11 46 12 20 -54 179 -92 220 -13 14 -23 30 -23 37 0 14
-117 92 -137 93 -7 0 -13 5 -13 10 0 6 -8 10 -17 10 -10 0 -38 7 -62 16 -35
12 -46 12 -52 2 -4 -7 -11 -9 -15 -6 -3 4 3 22 14 40 37 59 79 152 86 193 4
22 11 45 16 50 5 6 8 21 8 35 -1 14 8 70 20 125 22 103 35 187 34 218 -1 9 3
15 8 12 5 -3 8 -20 8 -37 -1 -18 4 -34 10 -36 7 -2 12 -10 12 -18 0 -9 5 -12
10 -9 8 5 15 -21 11 -47 0 -3 7 -5 17 -4 18 3 25 35 57 276 15 117 16 371 1
420 -8 24 -7 24 17 -5 31 -36 80 -126 72 -133 -5 -5 25 -31 37 -32 11 0 1 281
-12 320 -14 43 -41 178 -41 204 0 10 -7 33 -16 50 -10 17 -16 39 -14 48 1 10
-11 43 -27 75 -51 99 -102 208 -102 215 0 5 -22 39 -50 78 -27 39 -50 74 -50
79 0 14 -240 241 -255 241 -8 0 -19 8 -24 19 -6 10 -22 22 -36 25 -14 4 -47
22 -74 41 -47 34 -159 67 -221 66 -70 -2 -114 -1 -117 3 -3 2 -18 0 -34 -4
-28 -8 -29 -7 -23 12 6 21 62 106 90 139 8 9 11 18 8 22 -3 3 3 16 15 28 23
25 27 39 11 39 -6 0 -4 10 4 23 16 25 14 162 -3 194 -5 10 -17 35 -26 56 -9
20 -20 37 -25 37 -13 0 -13 -30 0 -50 6 -9 5 -17 -1 -21 -6 -3 -12 -17 -13
-30 -7 -60 -18 -109 -26 -114 -4 -3 -11 -29 -15 -58 -9 -66 -34 -157 -44 -157
-13 0 -31 49 -31 86 0 21 -15 62 -40 108 -22 40 -40 81 -40 90 0 19 -17 48
-72 122 -21 28 -38 54 -38 57 0 18 -152 139 -203 163 -17 8 -43 22 -57 29 -14
8 -33 15 -42 15 -9 0 -19 4 -23 10 -3 5 -12 7 -20 3 -9 -3 -21 0 -28 5 -7 6
-18 7 -25 3z m-1432 -497 c0 -2 -9 -4 -20 -4 -11 0 -20 4 -20 9 0 5 9 7 20 4
11 -3 20 -7 20 -9z m-490 -213 c-5 -10 -6 -21 -3 -25 3 -3 1 -6 -5 -6 -8 0
-10 26 -3 58 1 2 6 0 11 -3 7 -4 7 -12 0 -24z m238 -58 c18 -1 22 2 18 14 -5
13 -4 14 9 3 8 -7 13 -16 10 -20 -3 -5 3 -6 14 -3 10 3 22 0 25 -6 4 -6 1 -11
-7 -11 -8 0 -20 -7 -28 -16 -7 -8 -20 -13 -30 -11 -12 3 -16 0 -12 -9 3 -8 -3
-12 -16 -11 -23 1 -27 17 -10 34 8 8 6 19 -6 39 -9 16 -11 22 -4 14 8 -9 25
-16 37 -17z m226 -41 c-6 -4 -10 -15 -8 -24 2 -20 -11 -24 -21 -8 -8 13 12 40
29 40 8 0 8 -2 0 -8z m-18 -249 c-10 -11 -19 -7 -22 10 -2 15 0 16 12 6 8 -6
12 -14 10 -16z m-912 -35 c-3 -4 -12 -8 -20 -8 -8 0 -14 -4 -14 -10 0 -5 -7
-10 -15 -10 -8 0 -15 -7 -15 -15 0 -9 -15 -30 -32 -48 -18 -18 -45 -49 -59
-68 -15 -19 -38 -46 -53 -59 -14 -14 -26 -31 -26 -38 0 -7 -7 -15 -15 -18 -8
-4 -15 -12 -15 -18 0 -7 -11 -23 -25 -36 -25 -23 -25 -23 -25 -3 0 12 -6 24
-12 26 -7 3 -3 6 9 6 27 1 40 20 22 32 -11 6 -11 11 -1 21 9 9 12 9 12 -1 0
-7 5 -9 10 -6 6 3 10 13 10 21 0 8 10 28 22 44 15 21 25 27 34 20 8 -7 13 -6
17 4 4 9 1 18 -5 22 -7 5 -8 2 -3 -6 5 -9 4 -11 -3 -6 -9 5 -7 14 4 32 15 22
32 36 19 14 -3 -5 1 -10 9 -10 9 0 23 15 32 33 14 25 14 30 3 22 -8 -5 -6 -2
4 8 11 9 24 17 31 17 6 0 16 10 21 23 6 12 14 20 18 17 5 -3 13 3 18 12 8 15
13 16 29 6 10 -7 16 -16 14 -20z m1201 -3 c0 -11 -6 -19 -12 -17 -7 1 -13 -4
-13 -12 0 -7 -6 -19 -14 -26 -12 -9 -13 -17 -4 -36 8 -16 15 -21 23 -14 8 6
16 -1 27 -26 10 -22 11 -31 4 -24 -7 5 -16 7 -19 3 -4 -3 0 -11 9 -17 13 -10
12 -14 -6 -34 -12 -12 -25 -20 -30 -17 -4 3 -11 -13 -15 -34 -4 -25 -13 -42
-23 -44 -15 -4 -15 -5 1 -6 10 -1 21 9 27 24 5 14 12 25 15 25 4 0 3 -4 0 -10
-12 -20 12 -9 45 21 19 17 29 28 23 24 -8 -4 -13 0 -13 10 0 10 7 15 18 13 9
-2 16 2 15 8 -3 17 43 10 65 -9 10 -9 25 -17 33 -17 12 0 11 2 -1 10 -8 5 -10
10 -4 10 5 0 20 9 32 20 12 12 23 16 27 10 9 -15 27 -12 19 3 -5 9 -4 9 7 -1
11 -10 10 -15 -5 -30 -13 -12 -16 -13 -11 -2 5 9 4 12 -1 7 -5 -5 -9 -12 -9
-16 0 -12 -88 -92 -97 -89 -5 2 0 13 11 25 12 12 17 25 12 28 -5 3 -12 1 -16
-5 -4 -6 -11 -7 -17 -4 -6 4 -8 3 -5 -3 4 -6 -1 -19 -9 -29 -9 -10 -12 -12 -8
-4 5 12 4 12 -6 3 -15 -14 -40 4 -33 24 9 22 -9 14 -38 -17 -16 -16 -40 -32
-54 -36 -14 -3 -25 -10 -25 -15 0 -6 -7 -6 -18 0 -14 7 -21 5 -29 -8 -6 -10
-28 -21 -50 -24 -21 -3 -47 -8 -58 -12 -16 -6 -17 -5 -5 4 8 6 11 11 5 11 -5
0 -28 -17 -49 -37 -25 -23 -41 -33 -44 -25 -2 8 -11 6 -29 -8 -33 -26 -51 -26
-28 0 10 11 14 20 8 20 -6 0 -8 11 -5 25 2 14 8 25 12 25 4 0 12 19 19 43 15
53 71 166 92 188 9 9 19 23 22 30 5 12 7 11 16 -1 9 -12 11 -11 11 8 0 12 6
22 13 22 8 0 24 11 37 25 12 13 27 22 31 19 5 -3 9 2 9 11 0 9 5 13 10 10 6
-3 10 -1 10 5 0 6 4 9 9 5 5 -3 12 -1 15 4 4 5 21 9 39 8 25 -2 32 -6 32 -22z
m-360 -3 c-3 -3 -11 0 -18 7 -9 10 -8 11 6 5 10 -3 15 -9 12 -12z m402 12 c-3
-3 -12 -4 -19 -1 -8 3 -5 6 6 6 11 1 17 -2 13 -5z m-57 -69 c-7 -8 -17 -15
-23 -15 -6 0 -2 7 9 15 25 19 30 19 14 0z m523 -174 c-15 -10 -22 -38 -12 -48
6 -6 3 -17 -9 -31 -15 -17 -21 -19 -32 -9 -12 10 -12 9 -1 -5 11 -14 11 -21 1
-33 -7 -8 -16 -12 -21 -9 -5 3 -9 3 -9 0 0 -21 27 -10 65 27 58 57 59 45 0
-16 -48 -51 -54 -67 -30 -87 8 -7 15 -18 14 -24 0 -7 -2 -6 -6 2 -2 6 -9 10
-14 6 -5 -3 -9 0 -9 7 0 7 -3 9 -6 6 -4 -4 -2 -13 5 -21 9 -11 8 -15 -5 -20
-10 -4 -21 -1 -26 6 -6 8 -7 4 -3 -11 5 -16 4 -21 -4 -17 -6 4 -11 3 -11 -2 0
-6 18 -8 43 -5 l42 6 -23 -21 c-13 -11 -24 -27 -26 -34 -1 -7 -17 -29 -36 -49
-53 -55 -67 -74 -62 -88 3 -10 0 -11 -9 -5 -20 12 -38 14 -45 3 -3 -5 4 -9 15
-9 23 0 41 -22 23 -28 -7 -2 -12 -10 -12 -17 0 -13 -29 -35 -44 -35 -3 0 -6 9
-6 20 0 22 25 28 33 8 3 -7 6 -3 6 9 1 12 7 24 14 26 6 3 2 6 -10 6 -32 1 -36
17 -11 42 13 12 17 19 11 15 -19 -11 -17 -2 23 82 20 42 38 91 41 107 2 17 10
35 17 40 6 6 10 19 8 30 -4 17 -2 18 12 6 9 -8 19 -11 23 -7 3 3 1 6 -5 6 -20
0 -3 64 30 110 18 25 33 47 33 50 -1 13 30 40 34 29 2 -6 -1 -14 -6 -18z
m-603 -111 c0 -5 -7 -10 -16 -10 -8 0 -12 5 -9 10 3 6 10 10 16 10 5 0 9 -4 9
-10z m-1520 -64 c0 -2 -7 -7 -16 -10 -8 -3 -12 -2 -9 4 6 10 25 14 25 6z
m2094 -22 c3 -8 2 -12 -4 -9 -6 3 -10 10 -10 16 0 14 7 11 14 -7z m-1568 -26
c4 -6 0 -16 -9 -23 -10 -7 -17 -15 -17 -19 0 -16 -29 -36 -44 -30 -20 7 -20 8
-1 44 13 25 26 34 57 39 4 0 10 -4 14 -11z m-82 -96 c-5 -4 -18 -18 -27 -32
-9 -13 -17 -19 -17 -12 0 24 21 52 38 52 10 0 13 -3 6 -8z m2735 -39 c10 -21
30 -81 45 -133 53 -188 168 -536 199 -600 17 -36 32 -70 33 -77 4 -24 105
-227 128 -258 13 -16 30 -44 38 -60 9 -17 32 -47 52 -68 20 -21 34 -43 31 -47
-3 -5 7 -16 22 -24 15 -8 39 -25 51 -39 21 -23 23 -32 18 -84 -17 -171 -18
-190 -2 -205 9 -9 17 -43 20 -87 6 -73 -6 -90 -19 -28 -16 73 -114 228 -182
287 -64 57 -112 90 -129 90 -9 0 -14 3 -11 7 17 16 -188 85 -260 87 -50 1 -78
21 -41 28 43 10 108 9 146 -1 21 -6 69 -13 107 -15 39 -3 99 -12 135 -20 77
-18 91 -11 68 38 -25 51 -167 139 -225 139 -13 0 -23 5 -23 11 0 11 -118 55
-165 62 -11 2 -42 7 -70 11 -113 19 -399 -6 -462 -40 -15 -9 -40 -18 -56 -22
-19 -4 -43 -27 -80 -78 -54 -74 -64 -92 -91 -165 l-16 -43 29 16 c17 8 39 15
50 15 11 0 23 5 27 11 3 6 17 9 30 6 13 -2 21 -1 19 3 -2 4 8 7 23 7 57 -2
280 35 303 49 6 3 92 13 139 16 36 2 70 -3 70 -10 0 -4 -30 -9 -66 -10 -221
-8 -459 -114 -559 -250 -44 -60 -107 -182 -129 -249 -11 -33 -23 -53 -33 -53
-8 0 -33 15 -56 33 -95 77 -237 73 -343 -7 -26 -20 -50 -33 -54 -29 -4 5 -14
32 -23 61 -9 29 -32 80 -52 113 -19 33 -35 63 -35 67 0 11 -68 90 -117 137
-40 38 -138 94 -228 131 -46 19 -35 17 -184 37 -62 9 -116 19 -120 23 -11 12
201 -10 254 -26 30 -9 190 -31 203 -28 15 5 163 -25 168 -33 8 -14 24 -10 24
5 0 13 -29 75 -40 86 -3 3 -27 38 -55 79 -36 53 -60 78 -85 88 -19 8 -44 18
-55 23 -28 12 -70 24 -71 19 0 -2 -7 1 -15 8 -14 11 -72 15 -259 15 -117 0
-173 -6 -215 -22 -42 -16 -40 -7 7 31 138 111 277 266 398 444 18 28 36 52 39
55 11 10 97 145 104 164 17 45 13 -15 -9 -149 -3 -16 -9 -67 -14 -113 -6 -46
-12 -94 -14 -107 -7 -36 -16 -123 -21 -201 -4 -56 -2 -73 9 -77 8 -3 19 0 24
6 25 31 107 158 159 248 59 102 81 115 64 38 -5 -24 -12 -89 -16 -144 -9 -137
-12 -171 -20 -195 -9 -30 3 -42 24 -22 10 9 17 19 15 22 -1 3 8 26 21 52 13
25 21 48 19 51 -5 5 20 86 41 133 8 17 20 54 26 83 6 28 15 54 21 57 8 5 8 -2
3 -22 -9 -35 -35 -169 -39 -204 -8 -69 -17 -173 -21 -245 -3 -44 -7 -101 -10
-126 -8 -77 16 -72 147 31 106 85 298 263 298 278 1 4 18 27 39 51 l39 44 -8
-44 c-5 -24 -18 -70 -29 -101 -11 -32 -23 -79 -27 -105 -4 -26 -17 -80 -29
-120 -22 -69 -22 -73 -5 -73 10 0 29 9 42 20 12 10 55 45 93 76 75 62 133 114
229 209 75 73 228 293 310 446 14 26 31 53 38 61 16 17 61 107 128 258 29 63
60 131 71 151 10 20 19 46 19 58 0 30 7 26 29 -16z m-2159 23 c0 -3 -4 -8 -10
-11 -5 -3 -10 -1 -10 4 0 6 5 11 10 11 6 0 10 -2 10 -4z m-620 -77 c-12 -27
-35 -67 -41 -74 -3 -2 -6 7 -7 20 -1 14 2 24 6 22 4 -1 8 2 9 7 1 5 7 12 14
17 10 6 9 10 -6 16 -19 7 -18 8 5 13 32 8 33 8 20 -21z m1496 -165 c-9 -8 -21
-12 -28 -8 -8 5 -6 10 8 15 31 12 37 10 20 -7z m-13 -37 c3 -8 -3 -13 -14 -13
-19 0 -24 8 -12 19 10 11 20 8 26 -6z m-2063 -7 c0 -17 -23 -60 -32 -60 -5 0
-6 6 -1 13 4 6 8 17 9 22 0 6 2 16 2 23 2 14 22 17 22 2z m2036 -33 c8 3 14
-1 14 -8 0 -7 -3 -9 -7 -6 -8 8 -33 -11 -33 -25 0 -6 7 -5 15 2 12 10 15 10
15 -4 0 -11 -8 -15 -24 -14 -21 2 -23 5 -13 23 6 11 10 29 10 40 -1 15 0 16 3
3 3 -10 11 -15 20 -11z m-979 -59 c-9 -29 -19 -64 -21 -78 -3 -14 -10 -45 -16
-70 -30 -121 -38 -197 -40 -412 l-2 -146 -58 -26 c-32 -14 -63 -26 -69 -26 -6
0 -11 -7 -11 -16 0 -13 -6 -15 -27 -9 -16 4 -25 3 -21 -1 4 -4 -5 -19 -20 -34
-37 -35 -64 -94 -39 -84 25 9 85 17 149 19 36 2 79 6 95 9 15 4 39 9 53 12 35
8 194 12 225 7 45 -9 26 -21 -42 -28 -181 -17 -372 -123 -475 -262 -21 -29
-38 -55 -38 -58 0 -3 -11 -23 -25 -45 -14 -22 -21 -40 -16 -40 5 0 4 -13 -2
-30 -6 -16 -15 -30 -20 -30 -4 0 -5 5 -1 11 4 7 8 95 9 198 1 102 6 219 10
260 6 52 5 72 -3 67 -6 -3 -13 -2 -17 4 -4 6 -11 8 -16 5 -5 -4 -9 3 -9 15 0
12 4 19 9 16 5 -3 12 11 16 32 3 20 12 46 19 57 8 11 17 39 20 62 8 43 46 93
46 60 0 -29 61 -207 70 -207 6 0 10 7 10 15 0 8 5 15 10 15 6 0 9 3 8 8 -4 16
15 99 30 127 8 17 23 59 33 95 17 64 40 141 78 263 34 110 105 306 110 302 2
-3 -3 -28 -12 -57z m944 -41 c-6 -8 -9 -16 -6 -19 3 -2 -2 -5 -10 -5 -13 0
-13 3 2 19 19 21 31 25 14 5z m-29 -109 c-7 -7 -12 -21 -13 -32 0 -21 0 -21
-8 -1 -10 25 8 70 23 55 7 -7 6 -14 -2 -22z m-442 -835 c136 -49 265 -136 343
-231 190 -230 156 -625 -73 -859 -34 -35 -65 -63 -70 -63 -5 0 -37 -15 -72
-33 -116 -62 -159 -72 -303 -71 -130 1 -214 13 -270 38 -16 8 -43 20 -60 27
-33 15 -170 131 -214 181 -67 79 -141 266 -141 360 0 31 -6 53 -17 64 -17 17
-17 18 0 11 14 -5 17 -1 17 22 0 78 61 244 113 309 100 125 225 214 341 243
26 6 49 15 52 20 3 5 71 7 152 5 115 -3 159 -8 202 -23z m1950 0 c124 -45 214
-103 288 -186 58 -63 109 -141 121 -182 7 -22 19 -65 28 -95 8 -30 16 -98 17
-150 1 -85 -3 -104 -33 -185 -49 -131 -86 -190 -173 -277 -78 -78 -138 -115
-251 -152 -98 -33 -278 -43 -369 -22 -220 51 -390 199 -447 387 -41 134 -42
144 -43 204 -1 107 9 220 22 260 57 175 172 293 364 371 112 46 147 52 296 49
95 -2 138 -7 180 -22z m-2395 7 c-6 -10 -49 -31 -95 -45 -14 -4 -20 -3 -17 3
4 5 27 15 52 22 25 7 48 17 51 21 3 5 7 9 10 9 3 0 2 -5 -1 -10z m-115 -20
c-8 -5 -19 -10 -25 -10 -5 0 -3 5 5 10 8 5 20 10 25 10 6 0 3 -5 -5 -10z m-45
-20 c3 -6 -1 -7 -9 -4 -18 7 -21 14 -7 14 6 0 13 -4 16 -10z m15 -27 c0 -5
-13 -17 -28 -27 l-27 -19 24 26 c26 28 31 32 31 20z m2861 -100 c13 -16 12
-17 -3 -4 -10 7 -18 15 -18 17 0 8 8 3 21 -13z m38 -57 c-3 -3 -11 5 -18 17
-13 21 -12 21 5 5 10 -10 16 -20 13 -22z m-3145 -121 c-15 -22 -31 -36 -21
-17 2 4 7 15 10 25 4 9 11 17 17 17 6 0 3 -11 -6 -25z m-354 -35 c47 -9 69
-22 106 -62 29 -31 32 -40 38 -128 8 -109 41 -306 62 -365 7 -22 14 -53 14
-68 0 -27 15 -81 65 -239 14 -43 25 -83 25 -90 0 -7 -29 -23 -65 -34 -75 -25
-147 -24 -215 1 -25 9 -59 18 -77 20 -68 8 -208 130 -258 225 -44 83 -72 214
-68 318 3 94 3 95 22 162 33 114 131 241 200 256 14 3 40 10 56 14 17 5 37 6
45 3 8 -3 31 -9 50 -13z m4118 -44 c62 -43 126 -146 146 -237 22 -94 20 -227
-4 -314 -24 -90 -42 -137 -57 -153 -7 -7 -13 -18 -13 -23 0 -5 -11 -22 -24
-37 -14 -15 -34 -38 -46 -52 -30 -34 -182 -125 -193 -114 -3 3 -26 -2 -51 -10
-67 -23 -173 -21 -230 4 -51 23 -54 32 -31 97 8 23 17 56 20 73 3 17 10 39 15
48 10 20 51 179 48 190 -1 4 2 26 6 50 7 40 18 52 31 33 3 -5 37 21 75 58 38
38 89 84 113 104 50 41 57 39 99 -25 14 -21 28 -35 31 -31 4 3 7 1 7 -6 0 -7
4 -10 9 -7 5 3 11 -1 15 -9 3 -8 1 -15 -5 -15 -6 0 -7 -5 -3 -11 4 -8 9 -8 17
0 14 14 -4 69 -40 124 -13 22 -22 45 -20 52 3 7 31 23 61 36 31 12 55 28 53
33 -7 21 -119 6 -171 -22 -72 -39 -244 -211 -231 -232 3 -4 -2 -13 -10 -20
-19 -16 -19 -14 5 95 11 50 23 122 26 160 10 118 17 136 75 173 92 61 176 57
277 -12z m-2066 -71 c46 -9 78 -38 79 -73 2 -65 29 -132 54 -132 14 0 19 -14
18 -47 -1 -7 3 -13 7 -13 4 0 10 -19 13 -41 3 -23 31 -93 62 -156 82 -165 175
-255 349 -341 39 -19 98 -41 131 -48 115 -25 390 2 429 42 8 8 19 14 25 14 13
0 73 33 112 62 16 12 31 19 34 16 7 -6 91 74 144 137 32 38 110 190 112 217 0
7 9 31 20 53 l19 40 -5 -56 c-4 -57 -89 -346 -106 -364 -5 -5 -9 -15 -9 -22 0
-20 -70 -167 -81 -171 -5 -2 -9 -10 -9 -17 0 -29 -91 -171 -156 -245 -54 -61
-74 -86 -74 -92 0 -5 -5 -8 -10 -8 -6 0 -25 -13 -43 -29 -67 -62 -93 -82 -127
-103 -19 -12 -38 -26 -41 -31 -4 -5 -16 -14 -27 -20 -11 -7 -56 -32 -99 -57
-43 -25 -82 -47 -88 -49 -5 -2 -47 -21 -92 -42 -295 -138 -500 -193 -713 -192
-108 1 -138 4 -235 23 -73 14 -236 57 -270 70 -11 5 -47 18 -80 30 -71 25
-407 192 -425 210 -3 3 -23 17 -45 32 -100 68 -179 135 -275 231 -41 41 -79
81 -85 88 -5 8 -22 31 -37 51 -16 20 -32 47 -38 60 -12 28 -30 57 -47 76 -7 7
-13 22 -13 31 0 10 -7 24 -15 31 -8 7 -15 18 -15 24 0 6 -7 25 -16 41 -24 45
-90 250 -108 335 -17 80 -29 207 -19 196 4 -4 8 -13 9 -22 6 -39 41 -137 76
-211 28 -61 55 -100 106 -151 76 -77 174 -146 228 -161 20 -6 46 -19 58 -29
22 -20 49 -28 131 -40 85 -11 285 -6 303 8 1 2 10 3 20 4 37 4 133 47 202 91
68 44 172 139 197 180 79 131 109 204 134 323 11 53 16 62 34 62 17 0 25 9 33
39 7 21 12 52 12 68 0 34 26 68 61 81 26 10 133 8 191 -3z m1618 -255 c0 -5
-5 -10 -11 -10 -5 0 -7 5 -4 10 3 6 8 10 11 10 2 0 4 -4 4 -10z m-1269 -307
c13 -16 12 -17 -3 -4 -10 7 -18 15 -18 17 0 8 8 3 21 -13z m767 -894 c25 -12
51 -22 57 -23 11 -2 14 -4 134 -92 40 -29 78 -51 83 -48 11 7 44 -31 61 -71 7
-16 13 -48 12 -70 -2 -22 1 -44 5 -50 16 -21 19 -137 4 -142 -8 -2 -12 17 -13
58 -1 33 -4 66 -8 73 -4 6 -8 15 -8 21 0 5 -15 10 -32 11 -22 1 -33 -3 -33
-13 0 -8 -6 -13 -12 -12 -28 3 -48 -2 -48 -12 0 -6 9 -9 20 -6 27 7 25 -2 -2
-12 -15 -5 -26 -4 -30 3 -13 19 -9 36 8 36 8 0 12 5 9 10 -3 6 1 10 9 10 9 0
16 8 16 19 0 11 5 21 11 23 5 2 7 11 4 21 -4 9 -11 14 -16 11 -5 -3 -9 4 -9
16 0 12 -4 18 -10 15 -6 -4 -17 -2 -24 4 -10 9 -15 8 -19 -3 -4 -10 -1 -13 9
-9 8 3 14 -1 14 -10 0 -11 -11 -15 -35 -15 -23 0 -34 4 -32 12 3 6 10 10 16 8
7 -1 10 2 6 8 -9 15 -19 12 -33 -11 -9 -14 -10 -24 -3 -33 7 -8 5 -12 -7 -12
-9 -1 -28 -3 -42 -6 -14 -3 -19 -3 -12 -1 7 3 10 8 7 12 -4 7 26 35 82 76 21
16 -29 69 -61 63 -18 -4 -23 -1 -18 10 3 9 1 13 -5 9 -13 -8 -45 2 -38 12 2 4
-6 7 -17 7 -13 -1 -27 8 -34 22 -6 13 -13 20 -15 15 -2 -5 -19 -2 -36 7 l-33
15 28 32 c15 18 31 32 35 32 4 1 29 -9 55 -20z m-2397 -36 c0 -13 2 -14 6 -4
4 11 7 11 13 0 6 -8 -2 -22 -23 -41 -26 -23 -29 -30 -17 -37 12 -8 10 -12 -10
-20 -28 -11 -90 -60 -90 -72 0 -4 43 -49 95 -100 52 -50 92 -96 89 -101 -3 -5
-19 -8 -35 -6 -30 3 -54 -13 -130 -86 -32 -30 -39 -43 -35 -62 6 -21 -27 -124
-55 -176 -5 -10 -9 -24 -9 -32 0 -8 -7 -22 -16 -30 -8 -9 -13 -20 -10 -25 3
-5 -1 -12 -9 -15 -8 -3 -14 -11 -13 -17 2 -6 -3 -14 -9 -16 -8 -3 -13 5 -13
21 0 13 -4 27 -9 30 -5 3 -12 22 -15 41 -4 20 -16 51 -28 70 -24 42 -32 135
-18 215 6 30 11 66 13 80 1 14 6 31 10 38 5 7 5 26 2 43 -5 20 -2 36 8 47 8 9
17 28 20 42 18 80 24 94 42 104 11 6 24 16 30 22 13 15 48 27 40 14 -3 -6 1
-10 10 -10 11 0 15 5 12 14 -3 8 5 18 19 25 13 6 24 15 24 20 0 6 6 8 14 5 8
-3 23 3 33 14 23 26 63 28 64 5z m2349 -263 c0 -5 -5 -10 -11 -10 -5 0 -7 5
-4 10 3 6 8 10 11 10 2 0 4 -4 4 -10z m175 0 c13 -6 15 -9 5 -9 -8 -1 -26 -4
-40 -8 -22 -6 -24 -5 -11 10 15 19 17 19 46 7z m55 -6 c0 -8 -19 -13 -24 -6
-3 5 1 9 9 9 8 0 15 -2 15 -3z m-1833 -71 c28 -24 56 -43 61 -43 4 0 19 -11
32 -25 13 -14 30 -25 37 -25 8 0 40 -17 71 -39 31 -21 60 -39 64 -40 21 -4 47
-15 88 -34 32 -15 60 -20 100 -18 30 2 67 4 83 5 15 0 27 5 27 10 0 4 7 5 16
2 8 -3 13 -2 10 3 -5 7 14 16 41 21 2 0 18 9 37 19 25 14 37 16 45 8 8 -8 11
-6 11 6 0 10 8 21 18 24 9 4 23 15 31 26 9 12 22 17 37 14 13 -2 21 -1 19 3
-7 11 67 54 85 51 8 -2 12 0 8 4 -9 10 35 45 56 45 9 0 16 -5 16 -11 0 -5 -4
-8 -9 -5 -5 3 -12 -1 -15 -10 -9 -24 -7 -74 3 -74 5 0 11 -9 14 -20 3 -11 1
-20 -4 -20 -5 0 -9 5 -9 11 0 6 -7 3 -16 -5 -8 -9 -20 -16 -25 -16 -13 0 -11
18 3 22 7 3 -12 3 -42 2 -66 -3 -101 -15 -129 -45 -16 -17 -18 -25 -9 -31 10
-6 10 -8 1 -8 -7 0 -13 -4 -13 -10 0 -14 57 -12 67 3 4 6 6 22 4 35 -2 16 3
22 18 22 26 0 36 -17 21 -35 -7 -8 -10 -20 -7 -27 3 -8 9 -1 16 15 6 16 8 34
5 39 -5 8 1 9 17 4 13 -4 36 -10 51 -13 22 -4 27 -9 22 -27 -3 -13 2 -26 13
-34 14 -10 17 -24 15 -70 -3 -56 -4 -58 -52 -89 -27 -18 -61 -35 -76 -39 -15
-4 -43 -18 -62 -31 -19 -12 -40 -23 -47 -23 -7 0 -33 -11 -56 -25 -24 -14 -51
-25 -60 -25 -8 0 -37 -10 -63 -23 -60 -29 -126 -29 -186 1 -61 28 -102 44
-121 47 -9 1 -33 11 -53 23 -21 12 -42 22 -49 22 -6 0 -34 11 -62 24 -27 13
-77 35 -109 49 l-59 25 -3 114 c-2 62 -5 154 -8 203 -4 95 0 117 18 94 6 -8
34 -33 63 -56z m1816 -31 c-9 -9 -27 -17 -40 -18 -13 0 -21 1 -18 4 3 3 -1 12
-8 21 -10 14 -10 14 5 3 10 -8 18 -9 22 -3 4 6 13 8 21 4 11 -4 13 -1 8 13 -6
17 -5 17 10 6 15 -13 15 -15 0 -30z m-115 -31 c3 -8 -1 -12 -9 -9 -7 2 -15 10
-17 17 -3 8 1 12 9 9 7 -2 15 -10 17 -17z m-2320 -35 c16 -19 39 -39 51 -45
11 -7 20 -15 19 -19 -3 -16 15 -40 27 -36 7 3 30 -5 51 -17 22 -13 57 -32 79
-44 54 -28 95 -55 124 -81 12 -12 40 -27 61 -34 22 -7 54 -27 72 -44 24 -22
44 -32 71 -33 21 -1 51 -10 65 -20 15 -9 35 -18 44 -20 19 -3 67 -28 111 -57
15 -10 40 -18 55 -18 15 0 37 -6 49 -14 12 -8 29 -14 38 -14 8 0 23 -4 33 -9
76 -37 90 -40 175 -38 48 1 91 7 95 12 16 23 184 95 220 95 17 0 35 7 40 15 4
9 22 17 39 18 17 1 29 5 27 9 -3 4 10 14 28 22 18 9 40 20 48 25 50 31 177 88
188 84 8 -3 20 4 28 15 17 24 111 75 125 67 5 -4 8 -1 7 6 -3 13 69 68 90 69
6 0 12 5 12 11 0 6 7 17 15 25 14 14 19 11 16 -9 -1 -4 12 -1 29 8 27 14 29
14 23 -2 -3 -10 -10 -23 -14 -29 -5 -6 -6 -14 -2 -18 4 -4 -1 -4 -12 0 -11 4
-17 3 -12 -1 4 -5 -3 -19 -14 -32 -21 -21 -23 -21 -35 -5 -12 16 -12 15 -10
-3 4 -20 -20 -55 -36 -55 -5 0 -25 -11 -45 -25 -20 -13 -40 -22 -45 -19 -4 3
-8 1 -8 -4 0 -6 -11 -13 -25 -16 -14 -4 -33 -13 -43 -22 -33 -30 -117 -89
-127 -89 -27 -2 -74 -21 -110 -44 -22 -14 -48 -26 -58 -28 -10 -2 -41 -15 -70
-30 -29 -15 -54 -27 -57 -28 -3 -1 -21 -11 -40 -23 -19 -12 -40 -22 -46 -22
-19 0 -64 -26 -57 -33 3 -4 -8 -10 -26 -13 -17 -4 -34 -11 -37 -15 -3 -5 -10
-7 -15 -4 -5 4 -9 1 -9 -5 0 -6 -6 -10 -12 -9 -7 1 -21 -1 -31 -6 -9 -4 -30
-4 -45 0 -15 3 -47 10 -72 14 -25 5 -38 9 -30 10 12 1 12 4 -3 15 -14 11 -15
15 -5 19 7 3 -3 6 -22 6 -46 1 -110 19 -110 31 0 6 -9 10 -19 10 -11 0 -23 5
-26 10 -3 6 -14 10 -24 10 -10 0 -26 10 -37 22 -10 12 -13 18 -6 14 7 -4 12
-1 12 8 0 8 -8 14 -19 13 -11 0 -17 -5 -15 -9 9 -14 -36 -8 -69 9 -18 9 -37
16 -44 15 -6 -1 -14 2 -18 8 -3 5 -17 10 -31 10 -13 0 -33 9 -43 19 -11 11
-23 16 -27 13 -5 -4 -2 1 5 11 12 14 11 17 -3 17 -9 0 -16 -4 -16 -10 0 -5
-13 -8 -28 -7 -29 3 -92 36 -92 48 0 7 -57 23 -62 18 -3 -3 -118 58 -134 72
-7 6 -24 8 -38 5 -18 -3 -35 3 -54 19 -15 14 -33 30 -40 36 -8 7 -11 21 -8 35
4 14 2 24 -4 24 -6 0 -6 7 2 19 9 15 15 17 25 9 10 -8 12 -7 7 6 -9 23 -16 20
-44 -14 -24 -29 -49 -42 -34 -18 4 7 3 8 -5 4 -6 -4 -9 -12 -6 -17 4 -5 0 -9
-8 -9 -10 0 -13 -7 -10 -20 3 -11 9 -20 14 -20 5 0 2 -15 -5 -32 -25 -57 -47
-140 -42 -154 3 -8 2 -14 -3 -14 -4 0 -6 -14 -3 -30 3 -23 1 -29 -10 -25 -8 3
-22 -3 -32 -14 -10 -11 -23 -18 -27 -15 -5 3 -6 -2 -3 -11 5 -11 2 -14 -10 -9
-16 6 -18 66 -3 90 4 7 -1 15 -11 19 -29 13 -39 13 -39 1 0 -6 -8 -28 -17 -48
-20 -42 -52 -53 -43 -15 3 12 10 41 16 64 10 37 8 47 -10 79 -14 26 -17 40
-10 47 8 8 11 7 11 -1 0 -7 5 -12 11 -12 11 0 2 41 -12 50 -5 3 3 14 16 24 13
10 27 31 30 48 8 35 29 46 53 26 24 -21 52 -30 52 -16 0 6 6 5 17 -3 14 -12
16 -12 11 1 -3 9 -16 14 -34 13 -16 0 -23 1 -16 4 17 7 15 30 -3 37 -9 3 -12
12 -8 22 3 9 0 20 -7 24 -19 12 -1 32 22 25 14 -5 21 -1 25 13 5 20 36 40 64
41 10 1 30 -14 47 -33z m2422 29 c0 -7 -30 -13 -34 -7 -3 4 4 9 15 9 10 1 19
0 19 -2z m-235 -22 c-17 -42 -17 -53 -1 -53 9 0 16 8 16 18 1 16 1 16 11 -1 6
-9 14 -15 19 -12 5 3 11 1 15 -4 7 -12 -65 -62 -77 -54 -6 3 -7 15 -4 28 4 17
1 24 -15 28 l-21 6 22 30 c23 34 47 42 35 14z m451 -64 c5 1 9 -2 9 -6 0 -25
30 -93 41 -93 18 0 60 -41 68 -66 3 -11 14 -29 24 -40 18 -21 42 -80 42 -107
0 -9 4 -17 9 -17 5 0 13 -15 16 -32 4 -18 18 -53 31 -77 12 -24 20 -50 17 -59
-4 -8 1 -20 10 -27 24 -17 31 -76 12 -100 -10 -14 -14 -15 -13 -5 2 11 -6 15
-31 14 l-34 -2 23 18 c17 13 20 19 10 25 -8 5 -18 1 -27 -10 -7 -11 -13 -14
-13 -8 0 5 9 18 20 28 24 22 25 38 5 55 -9 8 -15 8 -15 2 0 -6 5 -12 12 -14 6
-2 8 -10 4 -16 -10 -17 -29 -15 -23 2 3 7 -1 24 -10 35 -8 12 -13 31 -10 42 3
10 1 22 -4 25 -5 3 -7 15 -4 27 9 33 -21 97 -45 97 -11 0 -20 7 -20 15 0 8 -3
15 -7 15 -18 0 -122 107 -122 125 0 11 -3 41 -7 68 -4 30 -2 53 5 61 6 7 9 22
5 32 -4 14 -3 15 4 6 5 -8 13 -13 18 -13z m-2814 -31 c-9 -9 -12 -7 -12 12 0
19 3 21 12 12 9 -9 9 -15 0 -24z m1588 12 c0 -5 -4 -10 -10 -10 -5 0 -10 5
-10 10 0 6 5 10 10 10 6 0 10 -4 10 -10z m-1358 -169 c24 -10 68 -30 98 -44
30 -14 60 -26 65 -27 23 -5 121 -64 138 -84 10 -11 16 -15 12 -8 -8 16 3 15
44 -7 25 -13 35 -26 37 -47 2 -21 1 -25 -6 -14 -6 8 -10 10 -10 3 0 -6 -9 -9
-20 -6 -22 6 -26 -8 -10 -37 7 -13 7 -21 -2 -26 -6 -4 -14 -2 -16 5 -3 9 -10
7 -25 -6 -19 -16 -20 -16 -8 0 7 9 9 17 3 17 -5 0 -9 7 -8 16 0 9 -5 18 -12
20 -7 1 -8 0 -2 -3 7 -3 5 -12 -6 -24 -9 -10 -14 -19 -10 -19 4 0 0 -7 -8 -16
-9 -8 -16 -25 -16 -37 0 -21 0 -21 21 2 23 25 29 21 43 -26 8 -27 -14 -32 -33
-9 -7 8 -21 12 -32 9 -13 -4 -19 -1 -17 7 2 7 -3 15 -9 17 -7 3 -13 0 -13 -6
0 -12 -84 11 -156 44 -65 30 -124 46 -124 34 0 -5 -7 -9 -16 -9 -10 0 -14 6
-11 18 14 50 16 72 8 72 -11 0 -9 33 3 42 6 4 4 13 -3 22 -8 9 -9 16 -3 16 14
0 22 38 8 44 -6 2 -3 5 7 5 10 1 17 9 17 21 0 16 19 60 27 60 1 0 21 -8 45
-19z m-582 -26 c-19 -20 -21 -27 -11 -39 7 -8 11 -19 8 -23 -9 -16 12 -53 27
-47 9 3 19 -3 26 -16 6 -12 28 -39 47 -61 19 -21 30 -39 24 -39 -5 0 -8 -7 -5
-15 9 -22 -19 -19 -33 4 -10 15 -10 21 0 24 7 3 2 6 -9 6 -24 1 -38 15 -49 50
-5 16 -4 21 4 17 6 -4 11 -1 11 8 0 12 -5 14 -23 7 -13 -5 -30 -5 -39 0 -12 7
-17 3 -22 -17 -4 -15 -5 -28 -3 -31 4 -4 -17 -33 -55 -74 -10 -10 -18 -23 -18
-29 0 -5 -5 -10 -11 -10 -5 0 -8 -4 -5 -9 3 -5 -1 -14 -9 -21 -8 -7 -15 -20
-15 -29 1 -19 23 -51 36 -51 5 0 15 -9 22 -20 7 -12 20 -19 29 -18 9 2 23 -10
33 -27 10 -16 23 -29 29 -27 11 2 15 -10 12 -34 -1 -12 28 -28 36 -20 2 2 5
13 6 24 0 11 5 18 10 15 4 -3 6 -11 3 -18 -2 -7 3 -12 12 -11 10 0 16 -5 14
-13 -2 -9 4 -12 17 -8 13 3 27 -4 41 -20 16 -18 24 -22 34 -14 10 8 12 5 11
-17 -2 -37 -15 -73 -23 -68 -4 2 -12 -7 -19 -20 -6 -13 -7 -22 -2 -18 5 3 6
-2 3 -10 -3 -9 -11 -16 -18 -16 -26 1 -34 17 -32 62 3 46 2 48 -30 58 -19 7
-34 15 -34 18 0 8 -49 31 -78 37 -12 2 -35 14 -52 27 -26 19 -33 20 -40 8 -5
-8 -7 -17 -4 -21 2 -4 -1 -11 -7 -15 -8 -4 -9 -3 -5 4 4 7 3 12 -3 12 -5 0 -9
9 -8 19 0 11 6 17 12 14 5 -3 1 3 -10 14 -11 11 -23 19 -27 16 -5 -2 -8 0 -8
5 0 5 -9 12 -20 15 -11 3 -18 2 -15 -3 3 -4 -5 -11 -18 -15 -22 -6 -22 -7 4
-15 28 -8 76 -50 58 -50 -5 0 -7 -5 -3 -11 9 -16 -48 22 -68 45 -22 23 -22 26
-2 54 10 15 13 32 9 52 -4 19 -3 30 4 30 6 0 11 10 11 23 1 22 41 109 74 160
10 15 19 39 19 52 0 15 10 33 23 44 14 11 24 29 24 45 0 35 36 66 77 66 18 0
33 5 33 12 0 6 3 8 7 5 3 -4 -4 -18 -17 -32z m87 -1 c-3 -3 -12 -4 -19 -1 -8
3 -5 6 6 6 11 1 17 -2 13 -5z m3024 -21 c13 -16 12 -17 -3 -4 -10 7 -18 15
-18 17 0 8 8 3 21 -13z m-71 -15 c0 -14 -18 -17 -28 -5 -8 10 -6 13 9 13 10 0
19 -4 19 -8z m34 -14 c9 -3 16 -10 16 -16 0 -5 -6 -6 -12 -3 -7 4 1 -5 17 -20
19 -16 23 -23 11 -19 -14 5 -17 4 -12 -4 4 -7 9 -24 12 -37 3 -19 0 -25 -13
-25 -17 -1 -17 -1 0 -14 24 -18 21 -24 -8 -19 -32 7 -45 22 -45 52 0 5 -7 17
-16 25 -10 10 -11 16 -4 16 7 0 9 7 6 16 -4 10 1 24 11 35 22 22 18 20 37 13z
m-479 -14 c-3 -5 -14 -10 -23 -9 -14 0 -13 2 3 9 27 11 27 11 20 0z m59 -16
c3 -8 2 -12 -4 -9 -6 3 -10 10 -10 16 0 14 7 11 14 -7z m-2398 -20 c-4 -9 -9
-15 -11 -12 -3 3 -3 13 1 22 4 9 9 15 11 12 3 -3 3 -13 -1 -22z m2744 16 c0
-5 -2 -10 -4 -10 -3 0 -8 5 -11 10 -3 6 -1 10 4 10 6 0 11 -4 11 -10z m-547
-87 c-6 -2 -9 -14 -6 -26 4 -19 3 -20 -6 -5 -13 19 -4 51 12 41 8 -5 8 -8 0
-10z m-1376 -15 c-5 -16 21 -37 46 -38 27 0 20 -20 -8 -20 -24 0 -25 -2 -25
-68 0 -90 -34 -140 -69 -99 -8 10 -7 17 2 27 9 10 9 11 -1 6 -9 -6 -11 7 -7
59 4 48 2 75 -9 96 -15 31 -11 35 37 31 9 -1 17 3 17 8 0 6 5 10 11 10 6 0 9
-6 6 -12z m1802 -61 c1 -5 -3 -5 -9 -2 -5 3 -10 16 -9 28 0 21 1 21 9 2 5 -11
9 -24 9 -28z m-1924 25 c11 -8 15 -52 5 -52 -6 0 -30 44 -30 55 0 7 14 6 25
-3z m1368 -17 c-3 -9 -8 -14 -10 -11 -3 3 -2 9 2 15 9 16 15 13 8 -4z m-1118
-61 c-7 -17 -11 -42 -8 -56 3 -14 -3 -40 -12 -58 l-17 -32 -21 20 c-18 17 -22
30 -19 66 2 26 8 46 13 46 5 0 9 7 9 16 0 8 4 24 10 34 8 15 14 16 34 7 23
-11 23 -14 11 -43z m1375 46 c0 -5 -7 -10 -16 -10 -8 0 -12 5 -9 10 3 6 10 10
16 10 5 0 9 -4 9 -10z m-2315 -12 c14 -6 25 -14 24 -17 0 -3 -17 -19 -37 -35
-20 -17 -31 -24 -24 -16 18 20 15 32 -6 26 -15 -5 -18 -2 -16 16 1 13 3 26 3
31 1 11 26 9 56 -5z m198 -11 c-4 -7 1 -6 10 2 15 12 17 11 14 -9 -2 -12 -13
-28 -24 -34 -11 -6 -19 -19 -17 -29 3 -25 6 -27 51 -39 79 -20 88 -23 90 -35
2 -9 -18 -5 -60 10 -40 15 -78 22 -100 19 -23 -3 -37 0 -37 7 0 6 7 8 15 5 11
-5 13 -2 9 10 -3 9 -11 13 -17 9 -6 -3 -7 -1 -3 5 4 6 13 9 22 5 8 -3 14 -2
13 3 -1 5 3 22 9 37 7 16 12 35 12 43 0 8 5 12 10 9 6 -4 7 -12 3 -18z m1785
-33 c-37 -53 -75 -76 -87 -55 -6 9 -11 10 -15 2 -4 -6 -4 -15 -1 -21 3 -5 1
-10 -4 -10 -14 0 -14 -46 0 -71 9 -18 8 -19 -9 -10 -11 6 -23 26 -26 46 -4 20
-11 33 -17 30 -11 -8 -12 5 0 23 12 19 61 43 74 35 6 -4 7 -1 2 7 -6 10 -4 12
8 7 10 -4 16 -2 14 6 -1 7 8 11 23 10 14 -1 19 0 12 3 -10 4 -5 12 15 24 44
29 47 23 11 -26z m607 36 c-3 -5 -12 -10 -18 -10 -7 0 -6 4 3 10 19 12 23 12
15 0z m-500 -10 c3 -5 1 -10 -4 -10 -6 0 -11 5 -11 10 0 6 2 10 4 10 3 0 8 -4
11 -10z m-1083 -12 c-14 -14 -16 -42 -3 -34 16 10 31 -19 29 -57 -1 -20 -5
-37 -10 -37 -4 0 -8 4 -8 9 0 5 -10 11 -22 14 -21 6 -21 7 -4 26 11 12 14 21
7 26 -12 7 -15 48 -4 58 3 4 11 7 17 7 6 0 5 -5 -2 -12z m-322 -8 c0 -5 7 -10
15 -10 12 0 13 -5 3 -27 -16 -38 -32 -55 -19 -20 9 23 8 27 -8 27 -14 0 -18 5
-14 20 5 20 23 28 23 10z m369 -17 c-8 -9 -16 -10 -22 -4 -13 13 0 31 19 24
11 -4 12 -8 3 -20z m-1048 -14 c-5 -13 -10 -19 -10 -12 -1 15 10 45 15 40 3
-2 0 -15 -5 -28z m83 25 c9 -3 13 -10 10 -15 -3 -6 -1 -16 5 -23 9 -10 8 -15
-4 -20 -9 -3 -15 0 -15 9 0 8 -5 15 -11 15 -5 0 -7 -4 -4 -10 3 -6 -1 -7 -10
-4 -12 5 -13 10 -4 20 6 7 8 18 4 24 -7 11 5 13 29 4z m1926 -8 c0 -7 -9 -16
-19 -19 -17 -4 -18 -2 -8 14 14 22 27 25 27 5z m40 -1 c7 -9 8 -15 2 -15 -5 0
-12 7 -16 15 -3 8 -4 15 -2 15 2 0 9 -7 16 -15z m44 -20 c-4 -8 -10 -15 -15
-15 -4 0 -6 7 -3 15 4 8 10 15 15 15 4 0 6 -7 3 -15z m-951 -30 c-3 -36 -9
-41 -28 -22 -13 14 -14 20 -3 37 17 27 33 19 31 -15z m1707 28 c0 -5 -7 -17
-15 -27 -14 -19 -15 -19 -15 7 0 17 5 27 15 27 8 0 15 -3 15 -7z m-830 -7 c0
-2 -7 -9 -15 -16 -13 -11 -14 -10 -9 4 5 14 24 23 24 12z m786 -65 c-9 -12
-12 -11 -14 3 -2 9 -1 25 3 34 6 15 8 15 15 -3 4 -12 3 -26 -4 -34z m-1576 32
c-8 -4 -20 -13 -27 -22 -6 -9 -14 -13 -18 -9 -11 11 18 37 40 37 14 0 16 -2 5
-6z m-1315 -23 c3 -5 1 -10 -4 -10 -6 0 -11 5 -11 10 0 6 2 10 4 10 3 0 8 -4
11 -10z m299 -11 c-3 -6 -15 -7 -27 -3 -19 6 -20 5 -10 -8 7 -8 9 -19 5 -23
-4 -5 -1 -5 6 -1 18 10 15 -29 -3 -44 -12 -10 -15 -10 -15 4 0 9 -6 16 -14 16
-20 0 -8 -37 13 -43 23 -6 23 -37 1 -37 -10 0 -23 -14 -31 -32 -7 -18 -17 -36
-22 -39 -5 -4 -12 -22 -16 -40 -6 -29 -11 -34 -35 -34 l-27 1 23 -18 c13 -10
33 -21 45 -24 13 -3 20 -10 17 -15 -3 -5 3 -9 13 -10 23 -1 54 -7 58 -11 2 -2
-5 -14 -16 -28 -17 -21 -19 -21 -10 -3 9 18 8 20 -10 16 -11 -3 -25 -16 -30
-29 -8 -24 -29 -33 -29 -14 0 6 5 10 10 10 6 0 10 4 10 8 0 4 -9 8 -20 8 -12
0 -19 -6 -17 -16 2 -18 -34 -15 -45 3 -4 7 -8 8 -8 4 0 -18 -40 15 -40 33 0
13 -7 20 -17 19 -11 0 -13 -3 -5 -6 6 -2 12 -9 12 -14 0 -4 -7 -6 -16 -2 -11
4 -14 13 -9 32 15 56 16 74 4 81 -8 6 -8 9 0 14 6 4 11 2 11 -4 0 -6 5 -8 10
-5 6 3 10 1 10 -4 0 -6 9 -11 20 -11 11 0 19 3 18 8 -3 16 15 87 25 93 9 7 13
26 16 82 0 16 5 26 10 22 5 -3 12 4 16 15 3 11 13 20 21 20 8 0 14 4 14 10 0
13 61 38 77 32 7 -2 10 -8 7 -13z m1716 12 c0 -5 -6 -11 -12 -14 -18 -6 -39 3
-32 14 7 12 44 12 44 0z m-956 -31 c-6 -6 -10 -3 -10 10 0 13 4 16 10 10 7 -7
7 -13 0 -20z m-594 -6 c0 -8 -4 -12 -10 -9 -5 3 -10 10 -10 16 0 5 5 9 10 9 6
0 10 -7 10 -16z m-297 -9 c-3 -9 -8 -14 -10 -11 -3 3 -2 9 2 15 9 16 15 13 8
-4z m332 -5 c-3 -5 -12 -10 -18 -10 -7 0 -6 4 3 10 19 12 23 12 15 0z m569 -5
c-7 -16 -24 -21 -24 -6 0 8 7 13 27 20 1 1 0 -6 -3 -14z m1922 -14 c5 8 16 -5
31 -37 22 -46 22 -50 6 -61 -25 -19 -31 -16 -38 18 -4 17 -15 39 -26 50 -11
11 -16 25 -12 35 6 16 7 16 19 0 9 -13 14 -14 20 -5z m71 -13 c-3 -7 -5 -2 -5
12 0 14 2 19 5 13 2 -7 2 -19 0 -25z m-105 -23 c2 2 4 -4 5 -14 1 -14 -4 -17
-23 -13 -13 2 -24 0 -24 -7 0 -5 6 -8 13 -5 7 2 17 -9 25 -28 13 -36 5 -48
-34 -48 -17 0 -23 7 -26 34 -2 19 0 32 5 29 4 -3 8 1 7 8 -1 8 1 24 5 36 6 18
11 21 25 13 9 -5 19 -7 22 -5z m-212 -9 c0 -3 -4 -8 -10 -11 -5 -3 -10 -1 -10
4 0 6 5 11 10 11 6 0 10 -2 10 -4z m-2973 -63 c0 -8 -6 -9 -19 -2 -10 5 -18
11 -18 12 0 2 8 3 18 3 10 0 19 -6 19 -13z m3047 1 c4 -9 4 -19 1 -22 -3 -3
-5 0 -5 6 0 7 -4 12 -9 12 -5 0 -7 -13 -6 -29 2 -21 -1 -28 -11 -24 -8 3 -14
0 -14 -6 0 -6 12 -12 28 -12 l27 -1 -30 -8 c-16 -4 -24 -8 -17 -9 6 0 12 -6
12 -13 0 -6 -9 -3 -20 7 -15 14 -20 15 -20 4 -1 -9 -4 -8 -12 5 -9 16 -6 23
20 46 34 30 32 51 -2 23 -21 -18 -21 -18 -2 4 10 13 23 20 27 17 5 -3 9 0 9 5
0 17 17 13 24 -5z m-3300 -53 c9 -16 12 -32 8 -35 -3 -4 0 -11 8 -16 8 -6 11
-10 5 -10 -6 0 -10 -127 -10 -360 0 -312 -2 -361 -15 -364 -8 -2 -49 -12 -90
-21 -41 -9 -88 -21 -105 -25 -16 -5 -54 -12 -83 -16 -29 -4 -55 -11 -58 -15
-13 -21 -43 -8 -49 21 -4 16 -10 32 -15 35 -5 3 -6 20 -3 39 4 25 -3 50 -26
97 -17 35 -31 69 -31 76 0 14 -21 55 -32 63 -4 3 -9 16 -11 28 -2 12 -6 25
-10 28 -4 4 -7 20 -7 36 0 20 -4 27 -12 22 -7 -4 -8 -3 -4 5 4 6 2 19 -5 27
-24 30 17 77 117 132 13 7 24 17 24 22 0 5 26 26 58 46 31 20 71 49 87 64 17
16 50 36 75 46 24 10 55 27 67 38 18 15 84 58 100 65 1 1 9 -12 17 -28z m3204
-6 c-3 -3 -9 2 -12 12 -6 14 -5 15 5 6 7 -7 10 -15 7 -18z m835 -94 c23 -15
60 -38 83 -49 22 -11 54 -33 71 -48 26 -23 30 -31 23 -55 -5 -15 -6 -30 -3
-33 3 -3 7 -48 8 -101 2 -52 7 -137 11 -188 11 -119 8 -238 -6 -247 -15 -9
-115 -4 -136 8 -9 5 -34 7 -55 5 -21 -3 -46 -2 -56 2 -10 4 -35 9 -56 10 -21
2 -70 9 -107 15 l-69 12 -7 44 c-7 46 18 120 36 109 10 -6 23 12 27 38 2 10
-3 17 -12 17 -13 0 -14 2 -3 14 7 8 16 12 21 9 4 -2 7 1 7 6 0 6 9 20 20 31
11 11 21 30 21 43 1 12 2 27 4 32 1 6 3 16 3 24 2 11 6 10 17 -5 12 -16 16
-17 24 -4 6 8 13 33 17 55 3 22 11 45 16 52 5 6 8 20 6 30 -1 10 1 23 5 30 4
6 11 32 16 56 6 35 5 46 -7 54 -14 8 -13 13 4 36 10 14 23 27 27 27 5 0 27
-13 50 -29z m-918 -11 c3 -5 1 -10 -4 -10 -6 0 -11 5 -11 10 0 6 2 10 4 10 3
0 8 -4 11 -10z m-20 -32 c6 -4 2 -8 -7 -8 -10 0 -18 7 -18 17 0 9 3 12 8 7 4
-5 12 -12 17 -16z m-185 -58 c0 -5 -4 -10 -10 -10 -5 0 -10 5 -10 10 0 6 5 10
10 10 6 0 10 -4 10 -10z m543 -82 c-10 -49 -12 -51 -28 -38 -18 15 -20 46 -2
53 26 11 35 7 30 -15z m-2643 2 c0 -5 -2 -10 -4 -10 -3 0 -8 5 -11 10 -3 6 -1
10 4 10 6 0 11 -4 11 -10z m40 -10 c0 -5 -8 -10 -17 -10 -15 0 -16 2 -3 10 19
12 20 12 20 0z m-696 -19 c4 -5 -3 -7 -14 -4 -23 6 -26 13 -6 13 8 0 17 -4 20
-9z m4232 -108 c95 -63 95 -63 171 -110 30 -18 56 -33 59 -33 8 0 180 -117
198 -135 9 -9 21 -13 27 -9 7 4 9 3 6 -3 -4 -6 0 -16 8 -23 8 -7 15 -16 15
-20 0 -17 -39 -4 -89 29 -108 72 -179 116 -325 202 -82 49 -152 90 -156 91
-13 5 -23 68 -11 68 6 0 50 -26 97 -57z m-941 -5 c-12 -56 -16 -168 -5 -168 5
0 7 -7 4 -15 -4 -8 -11 -12 -16 -9 -6 4 -14 1 -18 -6 -4 -7 -13 -9 -19 -6 -6
4 -9 11 -7 15 3 4 10 47 17 97 10 77 15 112 18 122 1 1 8 2 17 2 13 0 15 -6 9
-32z m-2178 -34 c-3 -3 -12 -4 -19 -1 -8 3 -5 6 6 6 11 1 17 -2 13 -5z m-1879
-16 c16 -16 15 -58 -1 -58 -6 0 -57 -25 -112 -56 -55 -31 -129 -72 -165 -91
-36 -19 -69 -39 -74 -44 -6 -5 -20 -9 -33 -9 l-23 0 23 38 c13 20 37 43 53 51
16 8 31 17 34 21 7 11 79 50 91 50 13 0 130 70 144 86 9 10 30 21 46 23 3 1
10 -4 17 -11z m757 -50 c0 -25 -1 -26 -12 -11 -7 9 -13 22 -13 28 0 7 6 12 13
12 7 0 12 -13 12 -29z m35 -48 c0 -13 5 -17 20 -13 38 10 20 -5 -24 -20 l-45
-15 -6 30 c-4 16 -4 32 -1 35 3 4 6 1 6 -6 0 -7 5 -9 10 -6 6 3 10 -1 10 -9 0
-9 5 -16 11 -16 7 0 9 10 7 25 -3 13 -1 22 3 19 5 -3 9 -13 9 -24z m30 20 c0
-5 -5 -10 -11 -10 -5 0 -7 5 -4 10 3 6 8 10 11 10 2 0 4 -4 4 -10z m1090 -40
c0 -5 -7 -10 -15 -10 -8 0 -15 5 -15 10 0 6 7 10 15 10 8 0 15 -4 15 -10z
m113 -37 c9 -3 17 -10 17 -15 0 -5 4 -7 9 -4 5 3 51 -5 102 -18 52 -13 121
-29 154 -36 33 -8 71 -18 85 -23 44 -16 252 -28 243 -14 -2 4 4 7 14 8 37 2
78 11 89 20 6 5 13 7 16 4 3 -3 24 1 46 9 23 9 42 12 42 8 0 -4 4 -2 8 4 11
17 130 54 128 40 -7 -36 -20 -57 -41 -62 -13 -3 -26 -12 -29 -20 -3 -8 -14
-14 -23 -14 -10 0 -28 -6 -39 -14 -41 -29 -215 -68 -314 -71 -52 -1 -99 1
-105 5 -5 4 -30 10 -55 14 -59 7 -110 20 -135 33 -11 6 -31 16 -45 22 -14 6
-59 26 -100 44 -41 18 -77 34 -80 34 -3 0 -15 5 -28 12 -22 12 -23 11 -13 -7
12 -22 62 -56 101 -67 14 -4 32 -13 40 -19 24 -19 170 -73 219 -80 24 -4 49
-10 55 -14 20 -12 230 -9 299 5 73 14 203 63 254 94 l32 20 -6 -38 c-3 -21
-10 -49 -16 -63 -10 -25 -13 -34 -15 -57 -1 -7 -9 -13 -17 -13 -8 0 -34 -8
-58 -19 -62 -27 -173 -54 -242 -58 -85 -5 -215 -4 -224 1 -4 3 -25 7 -46 10
-75 11 -130 25 -179 46 -27 11 -54 19 -59 17 -6 -2 -19 5 -29 15 -10 10 -27
18 -37 18 -11 0 -22 4 -25 9 -3 5 -30 20 -59 34 -54 25 -54 26 -60 79 -4 30
-10 68 -13 86 -8 38 8 43 42 11 l21 -20 5 25 c3 15 1 26 -3 26 -5 0 -9 4 -9 9
0 6 13 6 33 -1 17 -5 40 -12 50 -15z m-1060 -8 c-3 -9 -8 -14 -10 -11 -3 3 -2
9 2 15 9 16 15 13 8 -4z m-193 -7 c0 -4 7 -5 15 -2 10 4 15 0 15 -11 0 -12 5
-15 20 -10 11 4 20 2 20 -4 0 -16 -36 -32 -57 -24 -10 3 -15 3 -11 -1 4 -5 -2
-18 -13 -29 -10 -11 -15 -23 -11 -26 4 -3 7 -13 7 -21 0 -8 4 -18 9 -22 19
-13 -2 -20 -21 -7 -14 8 -20 24 -21 52 -2 36 0 38 15 26 15 -13 14 -11 -1 19
-12 24 -14 37 -7 46 6 7 9 15 6 17 -2 3 5 5 15 5 11 0 20 -4 20 -8z m3275 -55
c-3 -21 -8 -83 -10 -137 -5 -98 -14 -126 -41 -126 -21 0 -18 70 3 85 16 12 16
15 1 37 -20 30 -22 148 -2 148 7 0 16 5 20 12 5 7 3 8 -6 3 -9 -5 -11 -4 -6 3
4 7 16 12 27 12 17 0 19 -5 14 -37z m-3188 -28 c8 -9 13 -18 11 -21 -3 -2 -13
5 -23 16 -21 23 -11 27 12 5z m-72 -45 c3 -5 1 -10 -4 -10 -6 0 -11 5 -11 10
0 6 2 10 4 10 3 0 8 -4 11 -10z m35 0 c0 -5 -2 -10 -4 -10 -3 0 -8 5 -11 10
-3 6 -1 10 4 10 6 0 11 -4 11 -10z m4655 -10 c3 -5 1 -10 -4 -10 -6 0 -11 5
-11 10 0 6 2 10 4 10 3 0 8 -4 11 -10z m-4609 -40 c15 -16 31 -27 35 -24 5 3
9 0 9 -5 0 -6 -7 -11 -15 -11 -8 0 -15 5 -15 11 0 5 -4 7 -10 4 -5 -3 -10 -1
-10 5 0 6 -7 18 -15 26 -13 14 -15 14 -15 0 0 -20 -17 -29 -26 -15 -5 8 -3 9
6 4 10 -6 12 -4 7 7 -6 17 0 28 15 28 4 0 20 -13 34 -30z m119 -47 c3 -14 4
-28 0 -31 -3 -3 -5 -1 -5 4 0 6 -13 9 -28 8 -25 -2 -28 2 -29 31 -1 32 0 33
27 23 18 -6 31 -19 35 -35z m3015 9 c0 -5 -7 -9 -15 -9 -8 0 -15 4 -15 9 0 4
7 8 15 8 8 0 15 -4 15 -8z m-3227 -16 c8 -8 24 -12 35 -9 16 4 21 0 24 -18 2
-14 11 -25 23 -27 25 -5 56 -32 49 -43 -3 -5 1 -9 8 -10 9 0 10 -2 1 -5 -7 -3
-9 -12 -6 -20 3 -8 0 -14 -6 -14 -6 0 -11 5 -11 11 0 5 -4 8 -9 5 -5 -4 -7 2
-4 13 6 23 -8 33 -52 34 -19 1 -37 7 -39 14 -7 18 -26 16 -26 -2 0 -8 5 -15
12 -15 6 0 9 -3 5 -6 -8 -8 16 -33 26 -27 4 2 7 -1 7 -6 0 -6 3 -10 8 -8 14 4
92 -36 86 -44 -3 -5 -10 -9 -15 -9 -6 0 -7 5 -4 10 3 6 1 10 -4 10 -16 0 -13
-20 3 -26 16 -6 18 -84 3 -84 -5 0 -6 7 -3 16 6 15 4 15 -11 3 -15 -12 -16
-12 -10 4 7 18 -8 24 -18 7 -4 -6 -21 2 -41 20 -19 16 -41 30 -48 30 -20 0
-28 27 -10 34 8 3 14 13 14 21 0 10 5 13 12 9 7 -5 8 -3 3 6 -6 10 -12 9 -24
-7 -16 -18 -17 -15 -17 64 -1 86 7 101 39 69z m171 -125 c3 -5 -1 -14 -8 -20
-12 -10 -13 -8 -9 8 6 23 9 25 17 12z m3086 -16 c0 -14 -4 -25 -9 -25 -4 0 -6
11 -3 25 2 14 6 25 8 25 2 0 4 -11 4 -25z m-25 6 c3 -5 2 -12 -3 -15 -5 -3 -9
1 -9 9 0 17 3 19 12 6z m-99 -54 c-2 -7 -5 -4 -5 6 -1 10 -5 15 -11 12 -6 -4
-7 1 -3 11 6 15 7 15 15 0 5 -9 7 -22 4 -29z m34 3 c0 -5 -5 -10 -11 -10 -5 0
-7 5 -4 10 3 6 8 10 11 10 2 0 4 -4 4 -10z m26 -47 c1 -10 5 -26 9 -36 6 -13
4 -16 -9 -11 -10 4 -15 13 -12 20 3 8 0 14 -6 14 -7 0 -6 5 2 15 16 19 16 19
16 -2z m-129 -25 c-3 -7 -5 -2 -5 12 0 14 2 19 5 13 2 -7 2 -19 0 -25z m38 -8
c3 -6 -1 -7 -9 -4 -18 7 -21 14 -7 14 6 0 13 -4 16 -10z m-3125 -40 c0 -11 -2
-20 -4 -20 -2 0 -6 9 -9 20 -3 11 -1 20 4 20 5 0 9 -9 9 -20z m3200 7 c0 -8
-7 -14 -15 -14 -8 0 -15 6 -15 14 0 7 7 13 15 13 8 0 15 -6 15 -13z m-3150 -1
c0 -2 -7 -6 -15 -10 -8 -3 -15 -1 -15 4 0 6 7 10 15 10 8 0 15 -2 15 -4z
m3084 -17 c-3 -5 -10 -7 -15 -3 -5 3 -7 10 -3 15 3 5 10 7 15 3 5 -3 7 -10 3
-15z m-3021 -24 c38 -19 48 -35 23 -35 -8 0 -16 7 -20 15 -7 19 -36 20 -36 1
0 -8 -4 -17 -9 -20 -4 -3 -8 10 -7 29 0 19 3 34 6 32 3 -1 22 -11 43 -22z
m-93 -20 c11 -13 10 -14 -4 -9 -30 11 -7 -24 30 -45 19 -11 34 -25 34 -32 0
-6 7 -8 16 -5 8 3 24 -3 37 -16 19 -18 20 -20 3 -14 -16 5 -17 4 -7 -8 9 -10
11 -37 7 -83 -3 -37 -6 -83 -7 -100 -1 -18 -6 -33 -11 -33 -4 0 -3 -9 4 -20 7
-10 9 -22 6 -26 -11 -10 -28 6 -28 27 0 14 -6 19 -17 17 -14 -2 -18 -12 -17
-39 1 -27 -2 -35 -17 -35 -9 0 -15 4 -12 9 3 4 2 24 -1 43 -5 25 -12 34 -26
34 -25 0 -25 5 -2 28 9 9 26 16 36 14 11 -3 16 0 12 7 -4 6 -16 11 -27 11 -10
0 -19 6 -19 14 0 7 -7 19 -15 26 -11 9 -14 35 -13 111 1 54 5 99 10 99 4 0 7
3 7 8 -2 12 1 32 5 32 2 0 9 -7 16 -15z m3171 -19 c-9 -11 -8 -18 4 -30 10
-10 12 -16 5 -16 -7 0 -9 -7 -6 -16 5 -12 -1 -15 -32 -12 -34 3 -37 6 -40 36
-3 25 0 32 15 32 15 0 16 -2 3 -10 -13 -9 -13 -10 0 -10 13 0 13 -1 0 -10 -9
-6 -10 -10 -3 -10 16 0 28 21 25 43 -2 12 3 17 19 17 17 0 19 -3 10 -14z
m-3081 -6 c0 -5 -2 -10 -4 -10 -3 0 -8 5 -11 10 -3 6 -1 10 4 10 6 0 11 -4 11
-10z m23 -25 c-3 -9 -8 -14 -10 -11 -3 3 -2 9 2 15 9 16 15 13 8 -4z m4400
-95 c-3 -12 -8 -19 -11 -16 -5 6 5 36 12 36 2 0 2 -9 -1 -20z m82 -23 c-10
-53 -48 -192 -54 -199 -4 -4 -8 7 -9 24 -3 41 18 126 35 139 9 8 10 16 2 31
-7 14 -7 23 1 34 19 21 32 6 25 -29z m-1370 -37 c3 -5 1 -10 -4 -10 -6 0 -11
5 -11 10 0 6 2 10 4 10 3 0 8 -4 11 -10z m-8 -36 c-3 -3 -12 -4 -19 -1 -8 3
-5 6 6 6 11 1 17 -2 13 -5z m-3415 -42 c-2 -15 2 -22 12 -22 9 0 16 -5 16 -11
0 -5 3 -8 8 -6 4 3 5 -17 4 -44 -2 -27 -8 -49 -12 -49 -11 0 -23 56 -16 69 4
5 2 12 -4 16 -5 3 -10 -1 -10 -9 0 -9 -3 -16 -8 -16 -4 0 -6 19 -4 41 3 28 0
45 -9 51 -11 7 -9 8 6 6 14 -3 19 -10 17 -26z m-72 -2 c28 -15 15 -52 -16 -44
-17 4 -24 2 -24 -9 0 -8 -7 -20 -15 -27 -10 -9 -15 -9 -15 -1 0 6 4 11 8 11 5
0 14 18 21 40 13 44 14 44 41 30z m260 1 c0 -6 -4 -13 -10 -16 -5 -3 -10 1
-10 9 0 9 5 16 10 16 6 0 10 -4 10 -9z m3211 -3 c1 -7 1 -19 0 -27 -2 -7 2
-10 8 -6 6 3 11 1 11 -4 0 -6 -4 -11 -9 -11 -5 0 -7 -9 -4 -20 8 -28 -4 -51
-22 -44 -8 3 -12 11 -9 18 3 6 -2 2 -12 -9 -13 -16 -16 -17 -11 -3 3 10 2 20
-3 23 -13 8 -13 45 0 45 7 0 7 6 0 19 -7 14 -6 21 3 24 23 10 47 7 48 -5z
m1189 -38 c0 -5 -4 -10 -10 -10 -5 0 -10 5 -10 10 0 6 5 10 10 10 6 0 10 -4
10 -10z m75 -29 c3 -8 3 -16 0 -19 -3 -3 -5 0 -5 7 0 7 -9 9 -23 6 -17 -5 -24
-2 -24 8 0 19 45 17 52 -2z m-4467 -11 c13 0 14 -2 4 -9 -7 -4 -14 -18 -15
-29 -3 -39 -14 -23 -15 21 0 23 2 36 5 30 2 -7 12 -13 21 -13z m812 -14 c0
-10 -49 8 -54 19 -3 10 3 9 25 -2 16 -8 29 -16 29 -17z m-737 -16 c3 -11 2
-20 -3 -20 -4 0 -10 11 -12 25 -6 29 7 25 15 -5z m-269 -5 c-4 -8 -1 -15 5
-15 6 0 11 -4 11 -10 0 -10 -53 -14 -62 -4 -14 13 6 44 28 44 17 0 22 -4 18
-15z m1032 -10 c9 -8 13 -15 11 -15 -3 0 -14 -3 -24 -6 -15 -5 -15 -4 -3 5 13
9 12 11 -6 11 -17 0 -20 -5 -17 -24 3 -16 10 -23 19 -19 10 4 14 -3 14 -26 0
-17 5 -31 12 -31 9 0 9 -3 0 -12 -16 -16 -15 -43 3 -58 13 -11 15 -10 12 6 -1
11 -6 25 -11 32 -7 11 -4 12 10 4 11 -5 25 -7 32 -5 8 3 10 -1 6 -11 -3 -9
-10 -16 -15 -16 -5 0 -9 -4 -9 -10 0 -5 7 -10 15 -10 8 0 15 -4 15 -9 0 -13
-33 -6 -63 14 -25 16 -25 16 -20 -6 4 -15 3 -20 -5 -15 -7 4 -12 2 -12 -4 0
-18 -20 0 -31 28 -7 18 -6 28 3 34 8 5 9 8 2 8 -17 0 -13 83 4 96 12 9 12 13
-2 26 -21 22 -21 23 15 26 16 1 37 -4 45 -13z m2359 -24 c-3 -6 -11 -11 -16
-11 -5 0 -4 6 3 14 14 16 24 13 13 -3z m-85 -39 c0 -13 4 -32 10 -42 8 -14 5
-21 -15 -34 -14 -9 -25 -12 -25 -6 0 5 4 10 10 10 6 0 8 25 6 61 -2 35 0 55 5
47 5 -7 9 -23 9 -36z m-3061 15 c0 -9 -2 -9 -6 0 -3 10 -8 10 -19 -1 -16 -16
-19 -30 -5 -21 5 3 12 1 16 -5 3 -5 -3 -10 -14 -10 -26 0 -28 28 -4 46 19 13
33 10 32 -9z m44 -23 c-3 -7 -11 -10 -19 -7 -8 3 -14 0 -14 -6 0 -6 5 -11 10
-11 6 0 10 -7 10 -16 0 -13 -3 -14 -15 -4 -8 6 -19 9 -24 6 -5 -4 -12 -2 -16
4 -3 5 0 10 8 10 8 0 17 9 20 21 4 13 10 18 17 14 9 -5 10 -1 5 16 -7 23 -7
23 8 4 8 -10 13 -25 10 -31z m-253 -8 c0 -13 -7 -29 -15 -36 -9 -7 -13 -21
-10 -31 9 -26 -7 -29 -30 -6 -13 13 -15 18 -5 15 9 -3 23 5 33 18 17 23 17 24
0 25 -11 0 -13 3 -5 6 25 10 11 22 -20 18 -29 -4 -30 -4 -8 4 45 16 60 13 60
-13z m1047 -33 c-3 -10 -5 -4 -5 12 0 17 2 24 5 18 2 -7 2 -21 0 -30z m2311 0
c-2 -16 -7 -26 -13 -23 -5 3 -9 13 -8 23 2 10 -2 15 -7 12 -6 -3 -10 -1 -10 4
0 6 9 11 21 11 16 0 20 -5 17 -27z m-3442 -29 c-4 -9 -9 -15 -11 -12 -3 3 -3
13 1 22 4 9 9 15 11 12 3 -3 3 -13 -1 -22z m4034 11 c36 -19 39 -35 6 -35 -37
0 -56 10 -56 31 0 23 12 24 50 4z m-4071 2 c-2 -1 -12 -9 -21 -16 -15 -12 -18
-11 -18 3 0 10 8 16 22 16 12 0 19 -1 17 -3z m3399 -52 c-25 -29 -30 -31 -22
-10 4 9 0 15 -7 15 -21 0 12 20 33 20 16 0 15 -3 -4 -25z m-3057 8 c0 -5 2
-15 4 -25 2 -10 -5 -18 -21 -21 -13 -2 -24 0 -24 4 0 5 5 9 10 9 6 0 10 9 10
20 0 18 19 30 21 13z m-31 -7 c0 -11 -19 -15 -25 -6 -3 5 1 10 9 10 9 0 16 -2
16 -4z m3157 -3 c-4 -3 -2 -12 4 -19 7 -9 9 -28 4 -51 -6 -32 -9 -35 -16 -18
-8 19 -8 19 -15 -2 -7 -27 -17 -29 -34 -8 -13 16 -4 35 30 62 13 11 13 12 1
13 -11 0 -9 4 5 15 20 15 32 20 21 8z m497 -28 c20 -1 40 -5 43 -9 12 -12 24
-6 21 12 -2 11 2 16 12 14 40 -9 66 -9 79 2 11 8 13 8 8 0 -4 -7 5 -14 24 -18
39 -7 59 -28 59 -60 0 -20 -4 -24 -17 -19 -10 4 -14 2 -10 -4 3 -5 0 -10 -8
-10 -8 0 -15 6 -15 13 0 7 -9 16 -20 19 -11 3 -20 11 -20 17 0 6 -11 8 -25 6
-14 -3 -25 -1 -25 6 0 6 -5 4 -10 -5 -6 -11 -18 -15 -35 -11 -15 2 -25 0 -25
-7 0 -6 9 -11 19 -11 11 0 23 -5 26 -10 4 -6 11 -8 16 -5 5 4 9 0 9 -8 0 -8 7
-21 16 -28 13 -11 17 -10 25 4 13 23 29 21 29 -3 0 -17 -6 -20 -41 -18 -22 1
-46 7 -53 14 -7 6 -39 18 -72 25 -32 7 -65 19 -73 27 -13 13 -12 16 4 28 18
13 17 14 -8 14 -19 0 -25 4 -21 15 4 8 10 12 15 9 5 -3 9 5 9 17 0 22 1 22 13
4 9 -11 29 -19 51 -20z m-3844 9 c0 -8 -4 -12 -10 -9 -5 3 -10 10 -10 16 0 5
5 9 10 9 6 0 10 -7 10 -16z m-176 -11 c3 -7 1 -15 -4 -18 -6 -4 -10 -1 -10 4
0 6 -14 11 -31 11 -18 0 -28 4 -24 10 9 14 63 9 69 -7z m58 -15 c-15 -15 -26
-4 -18 18 5 13 9 15 18 6 9 -9 9 -15 0 -24z m74 4 c-8 -9 -18 -13 -22 -10 -8
9 19 37 29 31 5 -3 2 -12 -7 -21z m1016 -24 c-9 -9 -12 -9 -12 0 0 7 -5 12
-11 12 -5 0 -7 -4 -4 -10 3 -5 1 -10 -4 -10 -17 0 -13 18 7 29 22 13 41 -4 24
-21z m-817 -53 c3 -28 1 -45 -4 -39 -11 12 -21 108 -10 97 5 -5 11 -31 14 -58z
m55 54 c0 -5 6 -7 13 -3 8 5 8 2 -2 -9 -15 -19 -51 -23 -51 -6 0 6 7 8 16 5
12 -4 15 -2 10 9 -3 8 -1 15 4 15 6 0 10 -5 10 -11z m807 -14 c0 -18 -19 -15
-25 3 -2 7 3 12 11 12 7 0 14 -7 14 -15z m2245 -2 c-6 -2 -10 -9 -7 -13 3 -5
1 -11 -5 -15 -5 -3 -10 3 -10 14 0 14 6 21 18 20 10 0 12 -3 4 -6z m-3305 -16
c10 4 14 2 10 -4 -4 -6 -1 -13 5 -15 7 -3 -1 -5 -18 -5 -27 0 -30 3 -26 21 3
11 7 15 9 9 3 -7 11 -9 20 -6z m1000 -9 c-3 -8 -6 -5 -6 6 -1 11 2 17 5 13 3
-3 4 -12 1 -19z m33 12 c0 -5 -4 -10 -10 -10 -5 0 -10 5 -10 10 0 6 5 10 10
10 6 0 10 -4 10 -10z m62 -27 c-3 -18 -9 -22 -24 -17 -12 3 -18 2 -15 -3 4 -5
0 -10 -8 -10 -10 0 -12 4 -5 12 5 7 6 15 2 20 -4 4 4 2 16 -5 22 -11 23 -10
18 7 -4 13 -2 20 7 20 9 0 12 -9 9 -24z m-872 7 c0 -5 -2 -10 -4 -10 -3 0 -8
5 -11 10 -3 6 -1 10 4 10 6 0 11 -4 11 -10z m3129 -12 c11 -10 14 -10 18 0 7
17 23 15 23 -4 0 -8 -4 -13 -9 -9 -5 3 -13 0 -16 -5 -4 -7 -19 -8 -37 -5 -21
5 -28 4 -24 -4 4 -6 2 -11 -3 -11 -16 0 -13 11 7 31 21 22 24 22 41 7z m-3065
-52 c-9 -14 -10 -24 -3 -38 17 -31 7 -29 -36 10 -22 19 -34 32 -27 28 6 -4 12
-2 12 3 0 6 -4 11 -10 11 -5 0 -10 4 -10 10 0 5 7 7 15 4 8 -4 15 -14 15 -24
0 -11 5 -22 10 -25 6 -4 10 8 10 29 0 19 6 36 13 39 18 6 26 -25 11 -47z m-68
-103 c-2 -2 -11 -1 -20 3 -15 6 -18 16 -18 69 0 43 3 41 23 -14 10 -30 17 -56
15 -58z m3864 87 c0 -13 -7 -20 -20 -20 -11 0 -20 5 -20 10 0 6 5 10 12 10 6
0 8 3 4 7 -4 5 -14 -1 -22 -11 -8 -11 -14 -15 -14 -10 0 16 22 34 42 34 11 0
18 -7 18 -20z m-4040 -12 c0 -19 -2 -20 -10 -8 -13 19 -13 30 0 30 6 0 10 -10
10 -22z m270 -11 c0 -4 -6 -2 -14 5 -8 7 -12 17 -9 22 5 8 23 -12 23 -27z
m760 17 c0 -17 -22 -14 -28 4 -2 7 3 12 12 12 9 0 16 -7 16 -16z m2937 0 c-3
-3 -12 -4 -19 -1 -8 3 -5 6 6 6 11 1 17 -2 13 -5z m-4024 -37 c3 -8 1 -20 -4
-28 -6 -10 -9 -7 -9 14 0 29 5 35 13 14z m3383 -35 c-11 -10 -15 4 -8 28 l7
25 3 -23 c2 -13 1 -26 -2 -30z m-3329 16 c-3 -8 -6 -5 -6 6 -1 11 2 17 5 13 3
-3 4 -12 1 -19z m-197 -6 c0 -4 -9 -8 -20 -8 -11 0 -20 4 -20 8 0 4 9 8 20 8
11 0 20 -4 20 -8z m3436 -20 c-17 -16 -18 -16 -5 5 7 12 15 20 18 17 3 -2 -3
-12 -13 -22z m-3239 -35 l1 -42 -8 35 c-7 29 -6 50 3 50 1 0 3 -19 4 -43z
m1168 33 c-3 -5 -10 -10 -16 -10 -5 0 -9 5 -9 10 0 6 7 10 16 10 8 0 12 -4 9
-10z m-1218 -17 c-4 -3 -2 -11 3 -18 7 -8 5 -12 -5 -12 -8 0 -15 9 -15 19 0
10 5 18 12 18 6 0 8 -3 5 -7z m-237 -23 c0 -5 -5 -10 -11 -10 -5 0 -7 5 -4 10
3 6 8 10 11 10 2 0 4 -4 4 -10z m525 -1 c11 -17 -1 -21 -15 -4 -8 9 -8 15 -2
15 6 0 14 -5 17 -11z m835 -24 c-7 -20 -8 -31 0 -39 13 -13 13 -36 0 -36 -6 0
-13 13 -16 29 -5 22 -11 28 -23 24 -14 -4 -14 -3 2 10 9 8 17 19 17 25 0 9 21
22 28 17 1 -1 -2 -15 -8 -30z m-880 -9 c0 -3 -7 -3 -15 0 -8 4 -15 13 -15 21
0 12 2 12 15 -1 8 -8 15 -17 15 -20z m4035 16 c-3 -3 -11 0 -18 7 -9 10 -8 11
6 5 10 -3 15 -9 12 -12z m-4268 -9 c-9 -2 -14 -9 -11 -15 4 -7 2 -8 -4 -4 -20
12 -13 26 11 25 17 -1 18 -2 4 -6z m323 -3 c0 -5 -5 -10 -11 -10 -5 0 -7 5 -4
10 3 6 8 10 11 10 2 0 4 -4 4 -10z m-33 -22 c-3 -8 -6 -5 -6 6 -1 11 2 17 5
13 3 -3 4 -12 1 -19z m-65 -8 c24 -19 24 -66 -1 -79 -10 -6 -21 -7 -25 -4 -12
12 -6 -13 7 -26 10 -11 10 -13 0 -7 -7 4 -13 2 -13 -4 0 -7 5 -10 11 -8 6 2
11 8 11 13 0 16 19 35 29 29 5 -3 9 -21 9 -40 0 -24 -4 -34 -16 -34 -8 0 -13
-4 -10 -9 6 -8 -15 -21 -35 -21 -14 0 -11 40 4 40 8 1 7 4 -3 13 -11 9 -14 29
-12 84 3 75 8 82 44 53z m715 5 c0 -8 -4 -12 -9 -9 -4 3 -8 9 -8 15 0 5 4 9 8
9 5 0 9 -7 9 -15z m-926 -40 c13 4 19 2 19 -9 0 -9 -8 -16 -17 -17 -15 0 -15
-2 2 -9 18 -8 17 -9 -8 -9 -16 -1 -26 -5 -22 -11 3 -6 -1 -7 -9 -4 -9 3 -16
13 -16 21 0 8 5 11 11 7 8 -4 9 4 5 27 -6 28 -5 31 4 16 8 -12 18 -16 31 -12z
m-1 15 c0 -5 -4 -10 -10 -10 -5 0 -10 5 -10 10 0 6 5 10 10 10 6 0 10 -4 10
-10z m282 -35 c-4 -37 -16 -46 -26 -20 -4 11 19 55 29 55 1 0 -1 -16 -3 -35z
m4048 5 c-12 -22 -25 -26 -36 -8 -4 7 -3 8 5 4 6 -4 14 0 17 8 3 9 10 16 15
16 6 0 5 -9 -1 -20z m-3303 -12 c-3 -8 -6 -5 -6 6 -1 11 2 17 5 13 3 -3 4 -12
1 -19z m41 -3 c-3 -3 -9 2 -12 12 -6 14 -5 15 5 6 7 -7 10 -15 7 -18z m52 5
c0 -4 -12 -12 -27 -19 -24 -10 -26 -9 -11 2 10 8 16 16 13 19 -3 2 2 5 10 5 8
0 15 -3 15 -7z m-810 -14 c0 -3 -4 -8 -10 -11 -5 -3 -10 -1 -10 4 0 6 5 11 10
11 6 0 10 -2 10 -4z m711 -20 c5 3 9 0 9 -5 0 -6 -11 -11 -25 -11 -22 0 -24 2
-13 14 7 8 15 10 16 5 2 -5 8 -7 13 -3z m99 -6 c0 -5 -2 -10 -4 -10 -3 0 -8 5
-11 10 -3 6 -1 10 4 10 6 0 11 -4 11 -10z m3250 -16 c0 -2 -9 0 -20 6 -11 6
-20 13 -20 16 0 2 9 0 20 -6 11 -6 20 -13 20 -16z m-4090 7 c0 -6 -4 -13 -10
-16 -5 -3 -10 1 -10 9 0 9 5 16 10 16 6 0 10 -4 10 -9z m727 -38 c-3 -3 -11
-2 -17 2 -9 6 -9 10 1 16 14 8 27 -7 16 -18z m3208 7 c3 -5 1 -10 -4 -10 -6 0
-11 5 -11 10 0 6 2 10 4 10 3 0 8 -4 11 -10z m-3245 -10 c0 -5 -7 -7 -15 -4
-8 4 -15 8 -15 10 0 2 7 4 15 4 8 0 15 -4 15 -10z m3243 -17 c-7 -2 -19 -2
-25 0 -7 3 -2 5 12 5 14 0 19 -2 13 -5z m-3890 -17 c4 -10 1 -13 -8 -9 -8 3
-12 9 -9 14 7 12 11 11 17 -5z m-83 -7 c0 -6 -7 -17 -15 -25 -8 -9 -15 -23
-14 -32 0 -13 3 -11 11 6 21 42 35 26 33 -35 -2 -32 0 -62 3 -68 10 -16 11
-36 1 -29 -5 3 -9 1 -9 -5 0 -5 6 -12 13 -15 6 -3 1 -3 -13 0 -20 5 -23 4 -12
-7 15 -16 16 -29 1 -29 -5 0 -8 4 -4 9 3 5 1 12 -5 16 -6 4 -8 11 -5 16 9 14
-4 29 -20 23 -8 -4 -12 -11 -8 -18 4 -6 -1 -5 -11 3 -16 14 -16 15 8 28 29 15
31 21 15 43 -8 11 -12 12 -16 2 -2 -6 -9 -10 -14 -6 -11 6 -12 24 -1 23 18 -3
32 2 32 11 0 6 -3 9 -7 9 -5 -1 -15 -1 -23 0 -12 1 -11 5 5 18 17 14 18 15 2
9 -15 -5 -17 -2 -11 17 7 24 24 38 36 31 4 -3 8 0 8 5 0 6 5 11 10 11 6 0 10
-5 10 -11z m4627 -16 c8 -21 -3 -26 -26 -13 -28 14 -28 40 0 33 11 -3 23 -12
26 -20z m-5067 -13 c0 -5 -4 -10 -10 -10 -5 0 -10 5 -10 10 0 6 5 10 10 10 6
0 10 -4 10 -10z m5114 -15 c-4 -8 -10 -12 -15 -9 -14 8 -10 24 6 24 9 0 12 -6
9 -15z m-28 -21 c-3 -9 -6 -20 -6 -26 0 -5 -7 -2 -16 6 -8 9 -21 16 -27 17
-15 1 23 17 42 18 8 1 11 -5 7 -15z m-56 -24 c0 -5 -4 -10 -10 -10 -5 0 -10 5
-10 10 0 6 5 10 10 10 6 0 10 -4 10 -10z m-5 -70 c3 -5 1 -10 -4 -10 -6 0 -11
5 -11 10 0 6 2 10 4 10 3 0 8 -4 11 -10z m-3831 -55 c6 -16 -3 -19 -29 -9 -13
5 -14 8 -3 15 19 12 25 11 32 -6z m1344 -67 c-6 -18 -28 -21 -28 -4 0 9 7 16
16 16 9 0 14 -5 12 -12z"/>
<path d="M3110 8338 c0 -9 -8 -22 -17 -27 -10 -6 -13 -11 -7 -11 22 0 44 25
34 40 -8 13 -10 13 -10 -2z"/>
<path d="M4510 8330 c0 -5 5 -10 10 -10 6 0 10 5 10 10 0 6 -4 10 -10 10 -5 0
-10 -4 -10 -10z"/>
<path d="M4593 8265 c0 -7 6 -11 14 -8 7 3 13 6 13 8 0 2 -6 5 -13 8 -8 3 -14
-1 -14 -8z"/>
<path d="M4436 8261 c-4 -5 1 -8 9 -7 21 3 31 16 12 16 -9 0 -18 -4 -21 -9z"/>
<path d="M3425 8050 c3 -5 8 -10 11 -10 2 0 4 5 4 10 0 6 -5 10 -11 10 -5 0
-7 -4 -4 -10z"/>
<path d="M4022 6530 c-65 -10 -100 -23 -177 -69 -81 -48 -140 -104 -164 -156
-20 -43 -47 -172 -38 -181 2 -3 18 19 35 48 81 143 205 222 382 243 l45 6 -65
-35 c-95 -50 -144 -97 -181 -172 -28 -56 -33 -78 -37 -164 -4 -86 -2 -108 18
-162 39 -106 114 -189 195 -214 71 -22 123 -25 225 -11 92 13 193 124 225 248
42 160 -19 355 -136 430 -60 39 -64 49 -8 17 23 -13 81 -65 129 -116 85 -89
88 -91 79 -55 -5 21 -12 52 -16 68 -19 92 -180 223 -322 264 -71 20 -106 22
-189 11z m46 -280 c87 -53 53 -130 -58 -130 -31 0 -43 6 -64 31 -31 36 -28 62
10 97 31 27 69 28 112 2z"/>
<path d="M5863 6523 c-83 -16 -176 -73 -256 -155 -37 -39 -66 -73 -63 -75 3
-3 1 -13 -4 -23 -5 -9 -11 -28 -14 -41 -2 -13 -7 -37 -11 -53 -6 -21 -5 -27 4
-22 6 4 11 13 11 21 0 30 121 141 195 180 30 15 30 15 5 -2 -73 -52 -101 -89
-131 -173 -54 -153 -38 -287 49 -403 69 -90 129 -120 241 -120 180 -1 286 76
338 243 25 77 28 141 12 218 -14 69 -30 103 -76 160 -37 45 -125 107 -168 118
-24 6 -45 24 -28 24 4 0 44 -7 88 -15 145 -28 232 -84 306 -198 21 -32 40 -63
42 -70 2 -7 7 -9 11 -6 10 10 -14 121 -39 174 -20 44 -119 145 -140 145 -4 0
-19 9 -34 19 -73 52 -227 77 -338 54z m-12 -274 c37 -39 37 -63 0 -100 -42
-42 -97 -41 -140 3 -26 27 -31 38 -25 63 8 42 41 65 92 65 36 0 49 -5 73 -31z"/>
<path d="M2856 6030 c-26 -4 -27 -6 -13 -19 9 -7 34 -19 54 -26 41 -14 65 -41
47 -53 -6 -4 -23 -33 -38 -64 -21 -47 -25 -64 -18 -90 l8 -33 48 82 c26 46 51
85 55 88 5 2 17 -3 27 -13 11 -9 46 -39 79 -67 33 -27 71 -62 86 -77 14 -16
33 -28 42 -28 30 0 -14 81 -83 150 -126 129 -202 168 -294 150z"/>
<path d="M5063 5435 c0 -8 4 -15 9 -15 4 0 8 4 8 9 0 6 -4 12 -8 15 -5 3 -9
-1 -9 -9z"/>
<path d="M5424 5029 c-12 -4 -34 -10 -50 -12 -16 -3 -67 -13 -114 -23 -135
-29 -320 -25 -498 11 -137 28 -172 27 -154 -2 4 -6 25 -14 47 -17 22 -4 74
-13 115 -22 145 -29 317 -37 425 -20 39 6 185 34 215 41 8 2 25 4 38 4 15 1
22 7 22 20 0 23 -18 31 -46 20z"/>
<path d="M3690 4391 c0 -6 5 -13 12 -17 6 -4 8 -3 4 4 -3 5 0 13 6 15 8 3 6 6
-4 6 -10 1 -18 -3 -18 -8z"/>
<path d="M3730 4369 c0 -5 5 -7 10 -4 6 3 10 8 10 11 0 2 -4 4 -10 4 -5 0 -10
-5 -10 -11z"/>
<path d="M3553 4231 c0 -11 5 -17 9 -15 11 7 10 34 -1 34 -6 0 -9 -9 -8 -19z"/>
<path d="M3600 4206 c0 -29 43 -48 53 -23 3 8 -7 18 -24 24 -22 9 -29 8 -29
-1z"/>
<path d="M3653 4165 c-9 -25 2 -27 22 -5 17 18 17 20 1 20 -9 0 -19 -7 -23
-15z"/>
<path d="M5513 4055 c4 -9 7 -19 7 -21 0 -2 7 -4 15 -4 22 0 18 18 -7 31 -18
10 -20 9 -15 -6z"/>
<path d="M3786 3831 c-4 -6 -2 -11 4 -11 6 0 8 -6 4 -12 -6 -10 -4 -10 7 0 9
9 10 15 2 23 -8 8 -13 8 -17 0z"/>
<path d="M5420 3704 c0 -8 5 -12 10 -9 6 4 8 11 5 16 -9 14 -15 11 -15 -7z"/>
<path d="M6156 4101 c-3 -5 1 -11 9 -15 8 -3 15 -1 15 4 0 13 -18 22 -24 11z"/>
<path d="M4387 3725 c3 -8 9 -12 14 -9 12 7 11 11 -5 17 -10 4 -13 1 -9 -8z"/>
<path d="M4278 3723 c7 -3 16 -2 19 1 4 3 -2 6 -13 5 -11 0 -14 -3 -6 -6z"/>
<path d="M4259 3662 c-9 -4 -15 -16 -13 -27 2 -10 -1 -24 -6 -30 -7 -8 -5 -12
5 -12 8 0 17 7 21 16 6 15 15 62 11 60 -1 0 -9 -3 -18 -7z"/>
<path d="M3215 3370 c3 -5 8 -10 11 -10 2 0 4 5 4 10 0 6 -5 10 -11 10 -5 0
-7 -4 -4 -10z"/>
<path d="M4719 3513 c-13 -16 -12 -17 4 -4 9 7 17 15 17 17 0 8 -8 3 -21 -13z"/>
<path d="M6543 3305 c0 -8 4 -12 9 -9 5 3 6 10 3 15 -9 13 -12 11 -12 -6z"/>
<path d="M6387 3253 c-4 -3 -7 -11 -7 -17 0 -6 5 -5 12 2 6 6 9 14 7 17 -3 3
-9 2 -12 -2z"/>
<path d="M3287 2603 c-2 -5 2 -18 8 -31 12 -23 13 -23 18 -3 3 12 1 21 -5 21
-5 0 -6 5 -3 10 3 6 2 10 -4 10 -5 0 -12 -3 -14 -7z"/>
<path d="M3360 1882 c0 -12 19 -26 26 -19 2 2 -2 10 -11 17 -9 8 -15 8 -15 2z"/>
<path d="M3370 1706 c0 -2 7 -7 16 -10 8 -3 12 -2 9 4 -6 10 -25 14 -25 6z"/>
<path d="M7896 1881 c-4 -7 -5 -15 -2 -18 9 -9 19 4 14 18 -4 11 -6 11 -12 0z"/>
<path d="M7885 1810 c-3 -5 -1 -10 4 -10 6 0 11 5 11 10 0 6 -2 10 -4 10 -3 0
-8 -4 -11 -10z"/>
<path d="M6967 1363 c-14 -13 -7 -35 9 -29 9 4 23 1 31 -5 20 -17 27 -5 11 20
-13 21 -38 28 -51 14z"/>
<path d="M3316 1013 c-6 -14 -5 -15 5 -6 7 7 10 15 7 18 -3 3 -9 -2 -12 -12z"/>
<path d="M3330 910 c0 -5 7 -10 16 -10 8 0 12 5 9 10 -3 6 -10 10 -16 10 -5 0
-9 -4 -9 -10z"/>
<path d="M3610 8843 c0 -13 3 -14 12 -5 19 19 28 14 43 -20 l14 -33 -1 32 c-1
18 -5 30 -10 27 -4 -3 -8 0 -8 5 0 6 -11 11 -25 11 -17 0 -25 -6 -25 -17z"/>
<path d="M3586 8827 c3 -10 9 -15 12 -12 3 3 0 11 -7 18 -10 9 -11 8 -5 -6z"/>
<path d="M3920 8820 c-17 -33 -7 -44 19 -21 13 11 29 18 35 14 6 -3 7 -2 3 3
-5 5 -12 9 -15 9 -4 0 -12 4 -19 8 -7 5 -16 -1 -23 -13z"/>
<path d="M3444 8771 c-17 -13 -18 -19 -8 -29 7 -6 15 -8 19 -3 3 5 -1 12 -7
14 -7 3 -3 6 10 6 12 1 22 5 22 10 0 18 -15 19 -36 2z"/>
<path d="M3886 8773 c-6 -14 -5 -15 5 -6 7 7 10 15 7 18 -3 3 -9 -2 -12 -12z"/>
<path d="M3395 8730 c-16 -7 -17 -9 -3 -9 9 -1 20 4 23 9 7 11 7 11 -20 0z"/>
<path d="M3915 8720 c-3 -6 1 -7 9 -4 18 7 21 14 7 14 -6 0 -13 -4 -16 -10z"/>
<path d="M4127 8711 c3 -12 9 -21 13 -21 12 0 5 33 -8 38 -6 2 -8 -5 -5 -17z"/>
<path d="M4070 8686 c0 -2 8 -10 18 -17 15 -13 16 -12 3 4 -13 16 -21 21 -21
13z"/>
<path d="M4317 8593 c-4 -3 -2 -12 4 -19 9 -11 7 -15 -5 -19 -9 -3 -23 -7 -31
-10 -8 -2 -15 -9 -15 -15 0 -5 7 -10 15 -10 8 0 17 0 20 0 3 0 5 3 6 8 0 4 8
16 17 26 13 14 14 20 4 23 -6 3 -10 9 -6 14 6 10 0 12 -9 2z"/>
<path d="M3445 8520 c-3 -6 1 -7 9 -4 18 7 21 14 7 14 -6 0 -13 -4 -16 -10z"/>
<path d="M3495 8170 c-10 -11 -16 -22 -14 -24 2 -2 12 7 22 20 22 29 17 32 -8
4z"/>
<path d="M3940 8019 c0 -5 5 -7 10 -4 6 3 10 8 10 11 0 2 -4 4 -10 4 -5 0 -10
-5 -10 -11z"/>
<path d="M2082 2362 c0 -9 1 -33 4 -52 5 -29 7 -32 16 -17 10 18 2 73 -11 81
-4 3 -8 -3 -9 -12z"/>
<path d="M2111 2215 c-1 -19 -2 -41 -2 -47 0 -27 39 -257 46 -268 6 -9 56
-257 61 -303 3 -23 8 -51 11 -62 3 -11 8 -31 9 -45 2 -14 6 -36 9 -50 4 -22
31 -226 40 -305 2 -16 7 -66 10 -110 3 -44 10 -98 15 -120 13 -57 12 -65 -9
-65 -11 0 -23 -5 -26 -11 -9 -14 -34 20 -35 48 0 12 -11 43 -25 68 -23 41 -24
50 -2 46 4 0 7 4 7 10 0 6 -6 9 -12 6 -14 -4 -43 49 -39 71 1 6 -3 12 -9 12
-5 0 -10 11 -10 24 0 13 -7 26 -15 30 -8 3 -12 12 -9 21 3 8 1 15 -5 15 -6 0
-11 9 -11 20 0 11 -22 67 -50 124 -27 57 -50 111 -50 120 0 9 -7 16 -15 16
-21 0 -19 -18 10 -78 29 -60 29 -63 13 -59 -21 4 -10 -127 16 -203 14 -42 34
-113 37 -135 1 -5 9 -21 19 -35 9 -14 20 -43 24 -65 4 -22 14 -60 23 -85 20
-59 25 -74 23 -78 -1 -2 5 -13 13 -25 8 -12 18 -37 21 -55 7 -30 10 -32 51
-32 24 0 51 -3 61 -7 14 -5 16 -2 12 15 -4 14 -2 22 7 22 10 0 11 5 2 24 -7
13 -16 22 -22 18 -5 -3 -3 2 5 12 14 17 15 17 28 -14 7 -18 11 -37 9 -43 -5
-17 21 -40 49 -43 20 -2 26 3 31 27 4 22 8 27 14 17 7 -10 9 -11 9 0 0 7 4 11
8 8 4 -2 14 -1 22 5 11 6 7 9 -17 9 -29 0 -32 3 -36 38 -11 74 -8 114 8 108 8
-3 15 -1 15 4 0 6 -5 10 -11 10 -6 0 -8 7 -5 16 3 8 2 12 -4 9 -14 -9 -12 29
2 43 9 9 8 12 -4 12 -12 0 -17 14 -21 57 -2 32 0 64 5 71 6 6 7 12 2 12 -5 0
-2 5 6 10 13 8 12 10 -2 10 -21 0 -25 40 -5 40 8 0 9 3 1 8 -6 4 -13 26 -17
49 -4 38 -3 43 15 43 10 0 16 5 13 10 -4 6 -10 8 -15 5 -5 -3 -11 -1 -14 3 -6
10 -14 116 -21 262 -6 128 -13 191 -24 204 -4 6 -11 38 -15 71 -10 94 -25 176
-45 243 -5 17 -7 32 -4 32 3 0 1 6 -5 13 -6 6 -13 30 -17 52 -4 22 -12 48 -17
58 -15 29 -30 9 -23 -31 7 -38 12 -73 39 -272 9 -63 20 -135 26 -160 5 -25 9
-56 9 -70 -1 -31 -10 -1 -44 150 -40 180 -51 225 -68 276 -9 27 -21 69 -28 94
-7 25 -13 47 -14 50 -6 19 -25 60 -29 60 -2 0 -5 -16 -5 -35z m175 -1413 c13
-8 25 -52 15 -52 -9 0 -41 38 -41 50 0 12 11 13 26 2z"/>
<path d="M2216 2241 c-9 -13 2 -51 14 -51 16 0 18 15 6 39 -9 15 -16 20 -20
12z"/>
<path d="M3055 2010 c3 -5 8 -10 11 -10 2 0 4 5 4 10 0 6 -5 10 -11 10 -5 0
-7 -4 -4 -10z"/>
<path d="M6910 1961 c0 -5 -3 -16 -6 -25 -4 -11 0 -16 14 -16 24 0 37 16 22
25 -5 3 -10 1 -10 -4 0 -6 -4 -11 -9 -11 -5 0 -7 9 -4 20 3 11 3 20 -1 20 -3
0 -6 -4 -6 -9z"/>
<path d="M7815 1940 c3 -5 8 -10 11 -10 2 0 4 5 4 10 0 6 -5 10 -11 10 -5 0
-7 -4 -4 -10z"/>
<path d="M3130 1869 c0 -5 5 -7 10 -4 6 3 10 8 10 11 0 2 -4 4 -10 4 -5 0 -10
-5 -10 -11z"/>
<path d="M8075 1860 c3 -5 8 -10 11 -10 2 0 4 5 4 10 0 6 -5 10 -11 10 -5 0
-7 -4 -4 -10z"/>
<path d="M7976 1755 c-3 -8 -1 -15 4 -15 6 0 10 7 10 15 0 8 -2 15 -4 15 -2 0
-6 -7 -10 -15z"/>
<path d="M8070 1750 c-8 -5 -11 -12 -7 -16 4 -4 13 -2 19 4 15 15 7 24 -12 12z"/>
<path d="M8171 1747 c2 -1 12 -9 22 -16 15 -12 17 -12 11 3 -3 9 -13 16 -22
16 -8 0 -13 -1 -11 -3z"/>
<path d="M7080 1725 c-10 -12 -10 -15 2 -15 8 0 15 7 15 15 0 8 -1 15 -2 15
-2 0 -8 -7 -15 -15z"/>
<path d="M7022 1718 c3 -7 13 -15 24 -17 16 -3 17 -1 5 13 -16 19 -34 21 -29
4z"/>
<path d="M8050 1701 c0 -14 6 -19 20 -18 25 2 23 30 -3 35 -11 2 -17 -3 -17
-17z"/>
<path d="M7110 1670 c-12 -8 -12 -10 3 -16 21 -8 35 2 21 16 -5 5 -15 6 -24 0z"/>
<path d="M6964 1641 c1 -24 6 -31 29 -35 16 -3 26 -10 22 -16 -4 -7 -13 -6
-26 1 -22 11 -49 6 -49 -11 0 -10 92 -14 103 -4 11 11 -5 34 -24 34 -21 0 -26
16 -6 24 8 3 6 9 -7 20 -30 24 -43 19 -42 -13z"/>
<path d="M7495 1631 c-3 -6 3 -15 14 -20 24 -14 31 -14 31 -1 0 14 -38 32 -45
21z"/>
<path d="M7066 1584 c-4 -11 3 -25 21 -40 35 -30 40 -30 46 2 3 18 1 24 -9 20
-14 -5 -37 17 -27 27 3 4 -1 7 -9 7 -9 0 -19 -7 -22 -16z"/>
<path d="M7330 1590 c0 -5 5 -10 11 -10 5 0 7 5 4 10 -3 6 -8 10 -11 10 -2 0
-4 -4 -4 -10z"/>
<path d="M8053 1555 c-3 -9 -3 -18 -1 -21 3 -3 8 4 11 16 6 23 -1 27 -10 5z"/>
<path d="M7362 1504 c-1 -16 5 -23 23 -26 25 -5 45 7 45 28 0 6 -15 14 -33 16
-28 3 -33 0 -35 -18z"/>
<path d="M7920 1520 c-11 -75 -10 -85 4 -70 11 11 13 24 6 50 -4 19 -9 28 -10
20z"/>
<path d="M7280 1500 c8 -5 22 -10 30 -10 13 0 13 1 0 10 -8 5 -22 10 -30 10
-13 0 -13 -1 0 -10z"/>
<path d="M7506 1485 c-11 -8 -17 -18 -14 -21 11 -10 45 6 45 21 0 19 -7 18
-31 0z"/>
<path d="M7966 1478 c14 -49 22 -55 33 -25 13 34 7 47 -20 47 -16 0 -19 -4
-13 -22z"/>
<path d="M7301 1461 c-11 -7 -9 -10 8 -16 19 -6 25 -17 22 -37 -2 -15 8 -8 19
13 19 34 -15 62 -49 40z"/>
<path d="M7490 1380 c0 -5 5 -10 11 -10 5 0 7 5 4 10 -3 6 -8 10 -11 10 -2 0
-4 -4 -4 -10z"/>
<path d="M7885 1370 c-3 -5 3 -10 15 -10 12 0 18 5 15 10 -3 6 -10 10 -15 10
-5 0 -12 -4 -15 -10z"/>
<path d="M7474 1346 c-3 -7 -4 -17 -3 -22 3 -20 -2 -26 -15 -15 -10 9 -16 8
-25 -3 -10 -12 -8 -17 8 -25 11 -6 29 -11 40 -11 12 0 21 -4 21 -10 0 -5 5
-10 10 -10 6 0 10 7 10 15 0 8 -4 15 -10 15 -5 0 -10 7 -10 15 0 11 12 15 50
15 28 0 50 4 50 10 0 5 -7 7 -15 3 -9 -3 -15 -2 -14 3 3 19 -1 34 -11 34 -5 0
-10 -7 -10 -15 0 -8 -7 -15 -15 -15 -9 0 -18 7 -21 15 -8 19 -33 20 -40 1z"/>
<path d="M7385 1300 c3 -5 8 -10 11 -10 2 0 4 5 4 10 0 6 -5 10 -11 10 -5 0
-7 -4 -4 -10z"/>
<path d="M1899 1273 c5 -10 9 -29 9 -43 0 -14 8 -68 18 -120 10 -52 17 -99 16
-104 -2 -4 1 -13 7 -20 11 -14 41 -130 41 -162 0 -13 5 -24 10 -24 6 0 10 -13
10 -28 0 -15 4 -32 9 -38 4 -5 14 -37 21 -71 12 -62 13 -63 45 -63 29 0 32 3
28 23 -3 12 -11 27 -18 32 -7 6 -15 28 -18 50 -4 22 -9 51 -12 65 -3 14 -7 33
-8 43 -1 9 -4 17 -8 17 -4 0 -19 39 -34 88 -14 48 -31 99 -35 115 -5 15 -7 27
-4 27 3 0 0 9 -6 19 -5 11 -12 36 -15 56 -8 64 -39 155 -53 155 -9 0 -10 -5
-3 -17z"/>
<path d="M2878 1263 c7 -3 16 -2 19 1 4 3 -2 6 -13 5 -11 0 -14 -3 -6 -6z"/>
<path d="M7575 1260 c-3 -5 -2 -10 4 -10 5 0 13 5 16 10 3 6 2 10 -4 10 -5 0
-13 -4 -16 -10z"/>
<path d="M7547 1203 c-4 -3 -7 -15 -7 -25 0 -22 26 -24 34 -2 10 25 -10 45
-27 27z"/>
<path d="M8276 1175 c-3 -8 -1 -15 4 -15 6 0 10 7 10 15 0 8 -2 15 -4 15 -2 0
-6 -7 -10 -15z"/>
<path d="M7930 1170 c0 -7 6 -10 14 -7 7 3 19 0 26 -6 10 -9 11 -9 8 3 -5 18
-48 26 -48 10z"/>
<path d="M2447 1158 c7 -8 10 -18 6 -21 -3 -4 1 -7 10 -7 15 0 33 18 26 24 -2
2 -15 7 -29 11 -21 7 -23 6 -13 -7z"/>
<path d="M7526 1137 c-19 -14 -19 -15 1 -26 27 -14 55 -4 51 18 -4 21 -29 25
-52 8z"/>
<path d="M7911 1104 c0 -11 3 -14 6 -6 3 7 2 16 -1 19 -3 4 -6 -2 -5 -13z"/>
<path d="M7930 1110 c0 -5 5 -10 10 -10 6 0 10 5 10 10 0 6 -4 10 -10 10 -5 0
-10 -4 -10 -10z"/>
<path d="M2500 1091 c0 -6 4 -12 10 -16 5 -3 7 -12 3 -20 -3 -8 0 -15 7 -15 8
0 10 9 6 24 -4 18 -1 26 11 29 11 3 7 5 -9 6 -16 0 -28 -3 -28 -8z"/>
<path d="M8095 1080 c3 -5 13 -10 21 -10 8 0 12 5 9 10 -3 6 -13 10 -21 10 -8
0 -12 -4 -9 -10z"/>
<path d="M8360 1079 c0 -5 9 -9 20 -9 11 0 20 2 20 4 0 2 -9 6 -20 9 -11 3
-20 1 -20 -4z"/>
<path d="M7905 1071 c-3 -5 -1 -12 4 -15 5 -3 11 1 15 9 6 16 -9 21 -19 6z"/>
<path d="M2500 1026 c0 -2 7 -6 15 -10 8 -3 15 -1 15 4 0 6 -7 10 -15 10 -8 0
-15 -2 -15 -4z"/>
<path d="M7855 1010 c-3 -5 -1 -10 4 -10 6 0 11 5 11 10 0 6 -2 10 -4 10 -3 0
-8 -4 -11 -10z"/>
<path d="M1910 1000 c0 -5 5 -10 10 -10 6 0 10 5 10 10 0 6 -4 10 -10 10 -5 0
-10 -4 -10 -10z"/>
<path d="M8085 1000 c3 -5 12 -7 20 -3 21 7 19 13 -6 13 -11 0 -18 -4 -14 -10z"/>
<path d="M8018 974 c-5 -20 -3 -20 23 -11 15 6 25 15 22 19 -2 5 -11 4 -18 -2
-10 -8 -14 -7 -17 2 -3 7 -7 4 -10 -8z"/>
<path d="M8431 964 c0 -11 3 -14 6 -6 3 7 2 16 -1 19 -3 4 -6 -2 -5 -13z"/>
<path d="M2725 949 c-28 -6 -26 -7 13 -8 42 -1 53 3 30 11 -7 2 -26 1 -43 -3z"/>
<path d="M2420 939 c0 -5 5 -7 10 -4 6 3 10 8 10 11 0 2 -4 4 -10 4 -5 0 -10
-5 -10 -11z"/>
<path d="M7542 918 c-17 -17 -16 -52 2 -45 8 3 16 1 19 -6 2 -6 6 -2 9 10 8
30 -13 58 -30 41z"/>
<path d="M8387 923 c-3 -5 1 -14 9 -21 12 -11 14 -9 14 8 0 20 -14 27 -23 13z"/>
<path d="M2560 902 l-45 -16 35 -7 c19 -3 29 -7 21 -8 -8 0 -11 -4 -8 -7 4 -4
18 1 31 10 14 8 32 13 40 10 21 -8 20 6 -1 22 -21 16 -16 16 -73 -4z"/>
<path d="M8175 910 c-3 -5 -1 -10 4 -10 6 0 11 5 11 10 0 6 -2 10 -4 10 -3 0
-8 -4 -11 -10z"/>
<path d="M2460 870 c0 -5 5 -10 11 -10 5 0 7 5 4 10 -3 6 -8 10 -11 10 -2 0
-4 -4 -4 -10z"/>
<path d="M7479 836 c11 -14 11 -16 -3 -16 -9 0 -16 -7 -16 -15 0 -8 0 -18 -1
-22 0 -4 4 -9 10 -11 6 -2 11 5 11 16 0 15 7 19 37 18 20 -1 38 -7 40 -13 3
-7 11 -9 19 -6 8 3 14 -1 14 -10 0 -9 4 -18 9 -21 4 -3 6 7 3 22 -6 30 -30 54
-49 47 -7 -2 -29 3 -50 11 -34 15 -36 15 -24 0z"/>
<path d="M8216 834 c-16 -16 -13 -34 6 -34 5 0 8 6 5 14 -3 7 0 19 6 25 6 6 8
11 5 11 -4 0 -14 -7 -22 -16z"/>
<path d="M2476 832 c-3 -6 1 -23 9 -38 11 -22 22 -29 45 -29 26 -1 30 3 30 26
0 20 -6 28 -24 33 -13 3 -31 8 -39 12 -8 3 -18 1 -21 -4z"/>
<path d="M2650 814 c0 -22 2 -24 15 -11 8 9 24 13 35 10 12 -3 20 0 20 6 0 7
-4 10 -9 7 -5 -4 -21 -2 -35 4 -24 9 -26 7 -26 -16z"/>
<path d="M8365 830 c-3 -5 -3 -14 0 -20 3 -5 1 -10 -5 -10 -7 0 -6 -5 2 -14
11 -12 14 -12 21 0 5 8 12 12 18 9 5 -4 9 1 9 9 0 19 -36 40 -45 26z"/>
<path d="M8247 815 c-16 -15 -13 -45 3 -45 9 0 23 50 17 57 -3 2 -12 -3 -20
-12z"/>
<path d="M3426 804 c-21 -20 -20 -24 3 -24 14 0 19 6 18 20 -2 24 -2 24 -21 4z"/>
<path d="M2633 762 c-1 -15 4 -18 21 -15 29 6 30 33 1 33 -13 0 -21 -7 -22
-18z"/>
<path d="M1717 749 c7 -7 15 -10 18 -7 3 3 -2 9 -12 12 -14 6 -15 5 -6 -5z"/>
<path d="M7555 750 c-3 -5 1 -10 10 -10 9 0 13 5 10 10 -3 6 -8 10 -10 10 -2
0 -7 -4 -10 -10z"/>
<path d="M2515 730 c-16 -7 -17 -9 -3 -9 9 -1 20 4 23 9 7 11 7 11 -20 0z"/>
<path d="M7386 721 c-13 -20 -25 -62 -17 -57 5 4 12 0 14 -6 4 -8 6 -7 7 5 2
9 3 22 4 27 0 6 7 14 14 19 11 7 11 9 -2 14 -8 3 -18 2 -20 -2z"/>
<path d="M1785 690 c-3 -5 -3 -14 0 -20 3 -5 -3 -10 -14 -10 -12 0 -20 5 -18
12 1 6 -6 14 -15 16 -23 4 -24 -24 -2 -32 35 -13 93 -6 103 13 9 15 7 20 -12
25 -30 8 -35 8 -42 -4z"/>
<path d="M2475 620 c-3 -5 -1 -10 4 -10 6 0 11 5 11 10 0 6 -2 10 -4 10 -3 0
-8 -4 -11 -10z"/>
<path d="M7970 620 c0 -5 5 -10 11 -10 5 0 7 5 4 10 -3 6 -8 10 -11 10 -2 0
-4 -4 -4 -10z"/>
<path d="M3460 601 c0 -6 4 -13 10 -16 6 -3 7 1 4 9 -7 18 -14 21 -14 7z"/>
<path d="M1445 561 c-3 -5 -1 -12 5 -16 5 -3 10 -1 10 5 0 6 5 8 10 5 6 -3 10
-1 10 4 0 13 -27 14 -35 2z"/>
<path d="M5980 516 c0 -9 5 -16 10 -16 6 0 10 4 10 9 0 6 -4 13 -10 16 -5 3
-10 -1 -10 -9z"/>
</g>
</svg>
